<svg width="38" height="35" viewBox="0 0 38 35" fill="none" xmlns="http://www.w3.org/2000/svg">
<path d="M30.6406 0.640625V19.8594L22.3594 27.3594V9L30.6406 0.640625ZM0.640625 9C1.89062 8.0625 3.32292 7.41146 4.9375 7.04688C6.55208 6.68229 8.19271 6.5 9.85938 6.5C11.474 6.5 13.0885 6.68229 14.7031 7.04688C16.3698 7.41146 17.8021 8.0625 19 9V34.8594C17.8021 33.9219 16.3698 33.2708 14.7031 32.9062C13.0885 32.5417 11.474 32.3594 9.85938 32.3594C8.60938 32.3594 7.25521 32.5417 5.79688 32.9062C4.33854 33.2188 3.03646 33.6354 1.89062 34.1562C1.83854 34.1562 1.78646 34.1823 1.73438 34.2344C1.68229 34.2344 1.60417 34.2344 1.5 34.2344C1.29167 34.2344 1.08333 34.1562 0.875 34C0.71875 33.8438 0.640625 33.6615 0.640625 33.4531V9ZM37.3594 31.5V33.2969C37.3594 33.5052 37.2552 33.7135 37.0469 33.9219C36.8906 34.0781 36.7083 34.1562 36.5 34.1562C36.3438 34.1562 36.2135 34.1302 36.1094 34.0781C34.9115 33.4531 33.6354 33.0104 32.2812 32.75C30.9271 32.4896 29.5469 32.3594 28.1406 32.3594C27.2031 32.3594 26.1615 32.4635 25.0156 32.6719C23.9219 32.8802 22.8281 33.1927 21.7344 33.6094C20.6406 33.974 19.7292 34.3906 19 34.8594V31.5C19.7292 31.0312 20.6406 30.6146 21.7344 30.25C22.8281 29.8333 23.9219 29.5208 25.0156 29.3125C26.1615 29.1042 27.2031 29 28.1406 29C29.1823 29 30.1719 29.0781 31.1094 29.2344C32.099 29.3385 33.0625 29.5469 34 29.8594V7.35938C34.625 7.56771 35.1979 7.80208 35.7188 8.0625C36.2917 8.32292 36.8385 8.63542 37.3594 9V31.5Z" fill="#8872DE"/>
</svg>
