<svg width="26" height="22" viewBox="0 0 26 22" fill="none" xmlns="http://www.w3.org/2000/svg">
<path d="M23.0195 6.01953V3.5L13 9.76953L2.98047 3.5V6.01953L13 12.2305L23.0195 6.01953ZM23.0195 0.980469C23.6836 0.980469 24.25 1.23437 24.7188 1.74219C25.2266 2.25 25.4805 2.83594 25.4805 3.5V18.5C25.4805 19.1641 25.2266 19.75 24.7188 20.2578C24.25 20.7656 23.6836 21.0195 23.0195 21.0195H2.98047C2.31641 21.0195 1.73047 20.7656 1.22266 20.2578C0.753906 19.75 0.519531 19.1641 0.519531 18.5V3.5C0.519531 2.83594 0.753906 2.25 1.22266 1.74219C1.73047 1.23437 2.31641 0.980469 2.98047 0.980469H23.0195Z" fill="#8872DE"/>
</svg>
