<svg width="26" height="24" viewBox="0 0 26 24" fill="none" xmlns="http://www.w3.org/2000/svg">
<path d="M13 23.6602L11.1836 22.0195C9.11328 20.1445 7.60938 18.7578 6.67188 17.8594C5.73438 16.9609 4.67969 15.8477 3.50781 14.5195C2.375 13.1914 1.59375 12 1.16406 10.9453C0.734375 9.85156 0.519531 8.73828 0.519531 7.60547C0.519531 5.69141 1.16406 4.07031 2.45312 2.74219C3.78125 1.41406 5.42188 0.75 7.375 0.75C9.64062 0.75 11.5156 1.62891 13 3.38672C14.4844 1.62891 16.3594 0.75 18.625 0.75C20.5781 0.75 22.1992 1.41406 23.4883 2.74219C24.8164 4.07031 25.4805 5.69141 25.4805 7.60547C25.4805 9.12891 24.9727 10.7109 23.957 12.3516C22.9414 13.9922 21.8281 15.418 20.6172 16.6289C19.4453 17.8398 17.5117 19.6562 14.8164 22.0781L13 23.6602Z" fill="#8872DE"/>
</svg>
