<svg width="26" height="24" viewBox="0 0 26 24" fill="none" xmlns="http://www.w3.org/2000/svg">
<mask id="path-1-inside-1_1274_14" fill="white">
<path d="M13 23.6602L11.1836 22.0195C9.11328 20.1445 7.60938 18.7578 6.67188 17.8594C5.73438 16.9609 4.67969 15.8477 3.50781 14.5195C2.375 13.1914 1.59375 12 1.16406 10.9453C0.734375 9.85156 0.519531 8.73828 0.519531 7.60547C0.519531 5.69141 1.16406 4.07031 2.45312 2.74219C3.78125 1.41406 5.42188 0.75 7.375 0.75C9.64062 0.75 11.5156 1.62891 13 3.38672C14.4844 1.62891 16.3594 0.75 18.625 0.75C20.5781 0.75 22.1992 1.41406 23.4883 2.74219C24.8164 4.07031 25.4805 5.69141 25.4805 7.60547C25.4805 9.12891 24.9727 10.7109 23.957 12.3516C22.9414 13.9922 21.8281 15.418 20.6172 16.6289C19.4453 17.8398 17.5117 19.6562 14.8164 22.0781L13 23.6602Z"/>
</mask>
<path d="M13 23.6602L11.6594 25.1444L12.9759 26.3334L14.3136 25.1683L13 23.6602ZM11.1836 22.0195L9.84103 23.5019L9.84302 23.5037L11.1836 22.0195ZM3.50781 14.5195L1.98614 15.8174L1.99703 15.8302L2.00814 15.8428L3.50781 14.5195ZM1.16406 10.9453L-0.69744 11.6766L-0.692854 11.6883L-0.688122 11.6999L1.16406 10.9453ZM2.45312 2.74219L1.03891 1.32797L1.02836 1.33853L1.01796 1.34924L2.45312 2.74219ZM13 3.38672L11.4719 4.67708L13 6.48662L14.5281 4.67708L13 3.38672ZM23.4883 2.74219L22.0531 4.13514L22.0635 4.14585L22.0741 4.1564L23.4883 2.74219ZM20.6172 16.6289L19.203 15.2147L19.1914 15.2263L19.18 15.2381L20.6172 16.6289ZM14.8164 22.0781L16.13 23.5863L16.1416 23.5761L16.1531 23.5658L14.8164 22.0781ZM14.3406 22.176L12.5242 20.5353L9.84302 23.5037L11.6594 25.1444L14.3406 22.176ZM12.5262 20.5371C10.4577 18.6638 8.97151 17.2931 8.05569 16.4154L5.28806 19.3034C6.24724 20.2226 7.76883 21.6252 9.84103 23.5019L12.5262 20.5371ZM8.05569 16.4154C7.16994 15.5666 6.15471 14.4965 5.00749 13.1963L2.00814 15.8428C3.20467 17.1988 4.29881 18.3553 5.28806 19.3034L8.05569 16.4154ZM5.02948 13.2216C3.96953 11.9789 3.33457 10.9721 3.01625 10.1907L-0.688122 11.6999C-0.147071 13.0279 0.780469 14.4039 1.98614 15.8174L5.02948 13.2216ZM3.02557 10.214C2.68392 9.34436 2.51953 8.47866 2.51953 7.60547H-1.48047C-1.48047 8.99791 -1.21517 10.3588 -0.69744 11.6766L3.02557 10.214ZM2.51953 7.60547C2.51953 6.19174 2.97499 5.07611 3.88829 4.13514L1.01796 1.34924C-0.646867 3.06452 -1.48047 5.19107 -1.48047 7.60547H2.51953ZM3.86734 4.1564C4.80403 3.21971 5.92872 2.75 7.375 2.75V-1.25C4.91503 -1.25 2.75847 -0.391583 1.03891 1.32797L3.86734 4.1564ZM7.375 2.75C9.04118 2.75 10.3608 3.36123 11.4719 4.67708L14.5281 2.09636C12.6705 -0.103421 10.2401 -1.25 7.375 -1.25V2.75ZM14.5281 4.67708C15.6392 3.36123 16.9588 2.75 18.625 2.75V-1.25C15.7599 -1.25 13.3295 -0.103421 11.4719 2.09636L14.5281 4.67708ZM18.625 2.75C20.0707 2.75 21.1633 3.21838 22.0531 4.13514L24.9234 1.34924C23.2351 -0.390257 21.0855 -1.25 18.625 -1.25V2.75ZM22.0741 4.1564C23.0192 5.10151 23.4805 6.2105 23.4805 7.60547H27.4805C27.4805 5.17232 26.6136 3.03912 24.9025 1.32797L22.0741 4.1564ZM23.4805 7.60547C23.4805 8.66973 23.128 9.891 22.2565 11.2989L25.6576 13.4043C26.8173 11.5309 27.4805 9.58809 27.4805 7.60547H23.4805ZM22.2565 11.2989C21.312 12.8246 20.2921 14.1256 19.203 15.2147L22.0314 18.0431C23.3641 16.7104 24.5708 15.1598 25.6576 13.4043L22.2565 11.2989ZM19.18 15.2381C18.0598 16.3956 16.1703 18.1728 13.4797 20.5905L16.1531 23.5658C18.8532 21.1397 20.8308 19.2841 22.0544 18.0197L19.18 15.2381ZM13.5028 20.57L11.6864 22.152L14.3136 25.1683L16.13 23.5863L13.5028 20.57Z" fill="#8872DE" mask="url(#path-1-inside-1_1274_14)"/>
</svg>
