<svg width="18" height="16" viewBox="0 0 18 16" fill="none" xmlns="http://www.w3.org/2000/svg">
<path d="M9 15.7734L7.78906 14.6797C6.40885 13.4297 5.40625 12.5052 4.78125 11.9062C4.15625 11.3073 3.45312 10.5651 2.67188 9.67969C1.91667 8.79427 1.39583 8 1.10938 7.29688C0.822917 6.56771 0.679688 5.82552 0.679688 5.07031C0.679688 3.79427 1.10938 2.71354 1.96875 1.82812C2.85417 0.942708 3.94792 0.5 5.25 0.5C6.76042 0.5 8.01042 1.08594 9 2.25781C9.98958 1.08594 11.2396 0.5 12.75 0.5C14.0521 0.5 15.1328 0.942708 15.9922 1.82812C16.8776 2.71354 17.3203 3.79427 17.3203 5.07031C17.3203 6.08594 16.9818 7.14062 16.3047 8.23438C15.6276 9.32812 14.8854 10.2786 14.0781 11.0859C13.2969 11.8932 12.0078 13.1042 10.2109 14.7188L9 15.7734Z" fill="#8872DE"/>
</svg>
