<svg xmlns="http://www.w3.org/2000/svg" xmlns:xlink="http://www.w3.org/1999/xlink" viewBox="0,0,256,256" width="32px" height="32px"><g fill="#ffffff" fill-rule="nonzero" stroke="none" stroke-width="1" stroke-linecap="butt" stroke-linejoin="miter" stroke-miterlimit="10" stroke-dasharray="" stroke-dashoffset="0" font-family="none" font-weight="none" font-size="none" text-anchor="none" style="mix-blend-mode: normal"><g transform="scale(8,8)"><path d="M11,7c-4.97266,0 -9,4.02734 -9,9c0,4.97266 4.02734,9 9,9c4.97266,0 9,-4.02734 9,-9c0,-0.61719 -0.06641,-1.21875 -0.1875,-1.80078l-0.04687,-0.19922h-8.76562v3h6c-0.47656,2.83594 -3.02734,5 -6,5c-3.3125,0 -6,-2.6875 -6,-6c0,-3.3125 2.6875,-6 6,-6c1.5,0 2.86719,0.55469 3.92188,1.46484l2.14844,-2.10547c-1.60156,-1.46484 -3.73047,-2.35937 -6.07031,-2.35937zM25,11v3h-3v2h3v3h2v-3h3v-2h-3v-3z"></path></g></g></svg>