<svg width="308" height="261" viewBox="0 0 308 261" fill="none" xmlns="http://www.w3.org/2000/svg">
<path d="M99.0039 252.66C71.7333 255.104 46.623 237.042 29.1346 215.975C12.2036 195.578 -0.626528 170.079 1.00619 143.622C2.10376 125.836 9.93651 108.549 22.5847 95.9967C31.6449 87.0052 43.9978 80.2361 56.6956 81.5463C71.9806 83.1236 84.3757 95.8139 99.6524 97.4657C115.209 99.1472 129.272 89.1871 142.628 81.036C154.651 73.6987 167.754 67.3795 181.794 66.2613C195.835 65.143 211.01 70.0875 219.188 81.5546C225.559 90.4882 227.203 102.4 234.663 110.446C242.451 118.845 254.603 121.064 265.445 124.758C283.911 131.05 301.505 144.452 306.006 163.434C310.218 181.198 302.088 199.792 290.687 214.05C269.105 241.043 234.863 257.448 200.303 257.353C193.199 257.333 185.937 256.613 179.495 253.62" fill="#F4F3FF"/>
<path d="M253.968 55.2133C207.83 55.6665 192.729 49.3259 187.739 42.6734C182.749 36.021 179.926 27.6109 180.665 19.3282C181.3 12.2018 185.309 4.72311 192.191 2.76865C197.661 1.21533 203.811 3.67765 207.392 8.09442C211.293 12.9057 212.55 19.7087 217.301 23.683C216.316 15.4698 223.694 7.2731 231.965 7.3922C240.236 7.51131 247.375 15.9181 246.153 24.099C249.197 19.3936 255.042 16.3051 260.513 17.5193C265.985 18.7335 270.136 24.922 268.285 30.2122C276.189 25.5986 287.122 27.0013 293.605 33.4602C294.905 34.7555 296.056 36.265 296.585 38.0218C297.675 41.6387 295.856 45.6494 292.994 48.1158C290.132 50.5823 286.412 51.7865 282.747 52.703C273.366 55.0495 263.614 55.8998 253.968 55.2133Z" fill="#F4F3FF"/>
<path d="M56.933 59.6689C49.9348 59.5209 43.0557 56.3092 38.4479 51.0389C36.0675 48.316 34.2453 44.9497 34.0518 41.3377C33.8582 37.7257 35.5497 33.8937 38.7432 32.1956C43.3551 29.7424 48.9365 32.2825 53.5145 34.7994C53.7279 31.7556 52.5055 28.821 51.4203 25.97C50.2648 22.9353 49.2293 19.7939 49.1342 16.5483C49.0076 12.2507 50.6478 7.88518 53.7312 4.88856C56.8147 1.89193 61.3324 0.371704 65.5688 1.10866C70.3677 1.94321 74.3916 5.52046 76.6513 9.8355C78.911 14.1514 79.5967 19.1322 79.6 24.0031C81.4899 19.8477 85.2152 16.4408 89.6733 15.4599C94.1315 14.4789 99.2041 16.2026 101.731 20.004C104.258 23.8054 103.693 29.5083 100.154 32.3908C103.168 31.5869 106.338 31.0914 109.409 31.6439C112.48 32.1956 115.457 33.9284 116.914 36.6877C118.372 39.4469 117.951 43.2491 115.528 45.216C117.982 44.7503 120.537 44.8248 122.96 45.431C124.573 45.8347 126.256 46.5857 127.013 48.067C127.733 49.4748 127.41 51.2448 126.55 52.5715C125.689 53.8974 124.367 54.8527 123.017 55.6748C117.6 58.9692 103.386 61.2802 56.933 59.6689Z" fill="#F4F3FF"/>
<path d="M271.06 102.913C267.784 102.843 264.565 101.341 262.409 98.8741C261.295 97.5995 260.442 96.0247 260.351 94.3341C260.26 92.6435 261.052 90.8503 262.547 90.0554C264.706 88.9074 267.317 90.096 269.46 91.2738C269.56 89.8495 268.988 88.4757 268.48 87.1415C267.939 85.7214 267.454 84.2516 267.409 82.7322C267.351 80.7207 268.118 78.6777 269.561 77.2758C271.004 75.8738 273.118 75.1617 275.101 75.5066C277.347 75.897 279.23 77.571 280.288 79.5908C281.345 81.6107 281.666 83.9414 281.667 86.221C282.551 84.2764 284.295 82.6818 286.381 82.2227C288.467 81.7637 290.842 82.5701 292.024 84.3492C293.207 86.1283 292.942 88.7974 291.286 90.1464C292.697 89.7701 294.18 89.5385 295.617 89.7966C297.055 90.0546 298.448 90.866 299.13 92.1571C299.812 93.4483 299.615 95.2282 298.481 96.1479C299.63 95.9304 300.825 95.9652 301.959 96.2489C302.714 96.4383 303.502 96.789 303.856 97.4821C304.193 98.1413 304.042 98.9692 303.639 99.5896C303.237 100.21 302.618 100.657 301.986 101.042C299.452 102.585 292.799 103.667 271.06 102.913Z" fill="#F4F3FF"/>
<path d="M19.1225 260.092C21.1629 260.092 23.2026 260.092 25.2431 260.092C30.745 260.092 36.2478 260.092 41.7497 260.092C49.9075 260.092 58.0645 260.092 66.2223 260.092C76.1749 260.092 86.1275 260.092 96.0802 260.092C106.943 260.092 117.806 260.092 128.668 260.092C139.708 260.092 150.747 260.092 161.788 260.092C172.011 260.092 182.234 260.092 192.458 260.092C201.127 260.092 209.798 260.092 218.468 260.092C224.702 260.092 230.935 260.092 237.169 260.092C240.113 260.092 243.064 260.153 246.008 260.092C246.137 260.089 246.266 260.092 246.394 260.092C247.291 260.092 247.293 258.438 246.394 258.438C244.354 258.438 242.314 258.438 240.274 258.438C234.772 258.438 229.269 258.438 223.767 258.438C215.609 258.438 207.452 258.438 199.295 258.438C189.342 258.438 179.389 258.438 169.437 258.438C158.574 258.438 147.711 258.438 136.848 258.438C125.809 258.438 114.77 258.438 103.729 258.438C93.5062 258.438 83.2831 258.438 73.0592 258.438C64.3894 258.438 55.7188 258.438 47.049 258.438C40.8151 258.438 34.582 258.438 28.3481 258.438C25.4035 258.438 22.4532 258.376 19.5087 258.438C19.3797 258.44 19.2507 258.438 19.1225 258.438C18.2259 258.438 18.2242 260.092 19.1225 260.092Z" fill="#13084A"/>
<path d="M259.864 260.092C261.873 260.092 263.882 260.092 265.891 260.092C269.09 260.092 272.289 260.092 275.489 260.092C276.219 260.092 276.949 260.092 277.68 260.092C278.453 260.092 278.454 258.438 277.68 258.438C275.671 258.438 273.662 258.438 271.653 258.438C268.453 258.438 265.254 258.438 262.055 258.438C261.324 258.438 260.594 258.438 259.864 258.438C259.09 258.438 259.09 260.092 259.864 260.092Z" fill="#13084A"/>
<g opacity="0.46">
<path d="M165.014 45.9404C166.097 45.9404 166.099 44.2565 165.014 44.2565C163.93 44.2565 163.929 45.9404 165.014 45.9404Z" fill="white"/>
</g>
<path d="M105.288 153.71C101.536 151.667 97.9625 149.301 94.6111 146.651C91.2944 144.029 88.1944 141.134 85.3441 138.01C82.4625 134.853 79.8389 131.461 77.5039 127.881C75.1856 124.328 73.1509 120.588 71.4387 116.707C69.7266 112.825 68.3338 108.802 67.2957 104.688C67.1667 104.175 67.0426 103.661 66.9244 103.145C66.8706 102.911 66.5166 103.029 66.5704 103.262C67.5323 107.442 68.8557 111.535 70.5124 115.492C72.1575 119.42 74.1268 123.213 76.3857 126.823C78.647 130.436 81.1995 133.864 84.0067 137.07C86.8321 140.297 89.9189 143.295 93.2331 146.018C96.5234 148.722 100.039 151.155 103.735 153.27C104.194 153.532 104.656 153.79 105.12 154.042C105.331 154.157 105.499 153.825 105.288 153.71Z" fill="#E4E4F9"/>
<path d="M67.6738 106.168C65.0535 104.972 62.3356 101.441 61.774 97.983C61.6194 97.0318 61.5673 96.0178 61.7873 95.0269C62.0073 94.036 62.5317 93.0683 63.2761 92.572C64.0453 92.0592 64.9419 92.1121 65.6887 92.4455C67.587 93.2916 68.6573 95.7738 68.8194 98.3486C68.9815 100.924 68.376 103.597 67.6738 106.168Z" fill="#E4E4F9"/>
<path d="M70.9558 115.257C68.4223 116.627 63.9667 116.669 60.8683 115.034C60.0164 114.584 59.1752 114.015 58.5168 113.243C57.8584 112.47 57.4019 111.469 57.4548 110.575C57.5094 109.652 58.0917 108.969 58.8072 108.573C60.626 107.568 63.252 108.209 65.405 109.631C67.5588 111.053 69.3263 113.147 70.9558 115.257Z" fill="#E4E4F9"/>
<path d="M70.6951 115.661C69.7935 112.925 70.5396 108.532 72.6959 105.772C73.2889 105.013 73.9978 104.286 74.8745 103.774C75.7512 103.262 76.8174 102.989 77.6875 103.2C78.5866 103.416 79.1564 104.109 79.4195 104.884C80.0869 106.852 78.9927 109.324 77.2119 111.192C75.432 113.059 73.0598 114.43 70.6951 115.661Z" fill="#E4E4F9"/>
<path d="M77.5966 127.719C75.3013 129.46 70.9044 130.18 67.5935 129.037C66.6828 128.723 65.7647 128.288 64.9963 127.625C64.228 126.962 63.6242 126.042 63.5406 125.151C63.4538 124.231 63.9244 123.466 64.572 122.966C66.2163 121.696 68.9102 121.929 71.2543 123.006C73.5983 124.083 75.6653 125.882 77.5966 127.719Z" fill="#E4E4F9"/>
<path d="M77.4005 128.158C76.092 125.592 76.1598 121.136 77.8703 118.08C78.3409 117.239 78.9307 116.412 79.7189 115.773C80.5071 115.134 81.5195 114.702 82.4111 114.777C83.3325 114.855 84.0017 115.453 84.3797 116.178C85.3399 118.021 84.6344 120.631 83.1597 122.748C81.6858 124.865 79.5502 126.582 77.4005 128.158Z" fill="#E4E4F9"/>
<path d="M86.5799 139.301C84.5527 141.348 80.3005 142.679 76.8614 142.012C75.916 141.828 74.9458 141.528 74.0914 140.979C73.237 140.43 72.5099 139.604 72.3023 138.734C72.0873 137.835 72.4463 137.012 73.0161 136.425C74.4661 134.937 77.1649 134.789 79.638 135.526C82.1111 136.263 84.4096 137.755 86.5799 139.301Z" fill="#E4E4F9"/>
<path d="M86.4483 139.765C84.7924 137.407 84.2333 132.987 85.4971 129.72C85.8445 128.822 86.3127 127.92 87.0033 127.176C87.6939 126.433 88.636 125.863 89.5293 125.811C90.4524 125.758 91.1992 126.256 91.6748 126.922C92.8841 128.612 92.5532 131.295 91.3903 133.599C90.2282 135.902 88.354 137.901 86.4483 139.765Z" fill="#E4E4F9"/>
<path d="M96.6218 148.171C95.3712 150.104 92.2638 151.842 89.4648 151.883C88.6948 151.895 87.8875 151.819 87.1291 151.529C86.3714 151.241 85.6667 150.713 85.3615 150.067C85.0456 149.399 85.1911 148.697 85.5418 148.145C86.4318 146.743 88.5186 146.185 90.5732 146.357C92.6277 146.527 94.6698 147.317 96.6218 148.171Z" fill="#E4E4F9"/>
<path d="M96.5937 148.555C94.9122 146.983 93.7509 143.618 94.2041 140.855C94.329 140.095 94.5466 139.313 94.9651 138.618C95.3836 137.924 96.0263 137.324 96.7169 137.137C97.4299 136.944 98.0957 137.212 98.5771 137.654C99.7995 138.777 99.9807 140.93 99.4489 142.922C98.917 144.914 97.7797 146.785 96.5937 148.555Z" fill="#E4E4F9"/>
<path d="M98.468 230.112C95.5202 233.235 91.4996 235.228 87.3062 236.156C83.1127 237.084 78.7448 236.994 74.4942 236.381C61.5541 234.515 49.3964 227.663 41.0988 217.56C42.5413 215.964 44.5967 215.075 46.6314 214.375C54.3425 211.723 62.76 211.154 70.7574 212.746C78.7555 214.338 86.3136 218.085 92.4219 223.488C94.1373 225.005 97.387 228.093 98.468 230.112Z" fill="#90AEE4"/>
<path d="M44.9548 217.914C51.7479 219.068 58.4144 220.84 65.0387 222.712C71.668 224.586 78.2725 226.564 84.9828 228.131C88.7321 229.006 92.5129 229.751 96.3283 230.275C96.6691 230.322 96.775 229.796 96.4325 229.748C89.613 228.81 82.9176 227.169 76.2883 225.343C69.6424 223.514 63.0462 221.5 56.3607 219.813C52.6238 218.87 48.8588 218.032 45.059 217.387C44.7183 217.33 44.6132 217.856 44.9548 217.914Z" fill="white"/>
<path d="M87.5775 228.326C85.5833 229.368 83.5147 230.268 81.3948 231.023C79.2757 231.777 77.1037 232.387 74.9003 232.84C73.653 233.096 72.395 233.302 71.1312 233.459C70.7904 233.501 70.8268 234.037 71.1709 233.994C73.4397 233.711 75.6886 233.271 77.8969 232.676C80.1012 232.082 82.2641 231.334 84.3633 230.439C85.556 229.93 86.7272 229.372 87.876 228.772C88.0051 228.705 88.0241 228.511 87.9497 228.4C87.862 228.268 87.7065 228.258 87.5775 228.326Z" fill="white"/>
<path d="M80.4527 226.369C79.3361 224.512 77.8787 222.88 76.2559 221.45C74.6083 219.999 72.7969 218.746 70.945 217.571C69.8946 216.905 68.8285 216.265 67.7615 215.628C67.4645 215.451 67.2263 215.933 67.5216 216.108C69.3793 217.217 71.2362 218.334 73.0045 219.584C74.7539 220.82 76.4238 222.188 77.8622 223.781C78.6669 224.672 79.3882 225.639 80.0069 226.668C80.1847 226.965 80.6297 226.665 80.4527 226.369Z" fill="white"/>
<path d="M68.5878 223.255C65.7632 224.32 62.803 225.006 59.7964 225.287C58.9544 225.366 58.1099 225.412 57.2646 225.429C56.9197 225.435 56.9594 225.97 57.3043 225.964C60.3473 225.905 63.3803 225.439 66.3016 224.585C67.1329 224.342 67.9534 224.066 68.7639 223.761C69.0865 223.64 68.912 223.133 68.5878 223.255Z" fill="white"/>
<path d="M60.4284 220.787C58.4533 218.538 56.0199 216.717 53.3161 215.439C52.5551 215.079 51.7735 214.765 50.9753 214.497C50.6478 214.387 50.4824 214.898 50.8099 215.008C53.5609 215.933 56.1225 217.424 58.2779 219.368C58.8949 219.926 59.4789 220.519 60.0281 221.144C60.2564 221.405 60.6567 221.047 60.4284 220.787Z" fill="white"/>
<path d="M194.638 246.372C193.429 238.942 194.938 231.223 198.113 224.399C201.289 217.574 206.065 211.59 211.446 206.326C227.825 190.302 250.31 180.678 273.211 179.89C273.896 183.598 272.945 187.406 271.752 190.983C267.23 204.541 259.057 216.862 248.322 226.298C237.589 235.735 224.323 242.264 210.298 245.012C206.358 245.784 198.6 247.019 194.638 246.372Z" fill="#E3E1FF"/>
<path d="M268.61 184.881C259.769 193.108 250.204 200.499 240.541 207.725C230.872 214.956 221.085 222.042 211.756 229.713C206.544 233.999 201.481 238.47 196.688 243.221C196.26 243.645 196.879 244.353 197.311 243.926C205.879 235.433 215.296 227.863 224.898 220.579C234.524 213.278 244.351 206.241 253.819 198.733C259.111 194.535 264.288 190.188 269.233 185.586C269.675 185.175 269.055 184.468 268.61 184.881Z" fill="#A4A4ED"/>
<path d="M208.723 233.117C209.396 229.231 210.346 225.394 211.554 221.64C212.762 217.887 214.225 214.213 215.943 210.665C216.915 208.656 217.968 206.686 219.095 204.759C219.399 204.239 218.614 203.719 218.307 204.244C216.284 207.703 214.503 211.304 212.978 215.009C211.457 218.71 210.195 222.516 209.205 226.393C208.643 228.594 208.171 230.819 207.783 233.058C207.74 233.309 207.989 233.542 208.223 233.557C208.5 233.574 208.68 233.369 208.723 233.117Z" fill="#A4A4ED"/>
<path d="M219.035 225.285C222.81 225.71 226.632 225.418 230.351 224.682C234.126 223.936 237.8 222.749 241.406 221.422C243.451 220.669 245.478 219.867 247.502 219.06C248.065 218.835 247.648 217.991 247.089 218.214C243.567 219.619 240.035 221.014 236.413 222.145C232.828 223.263 229.146 224.131 225.396 224.436C223.299 224.606 221.186 224.581 219.094 224.347C218.491 224.277 218.435 225.217 219.035 225.285Z" fill="#A4A4ED"/>
<path d="M236.006 212.087C237.533 207.022 239.73 202.17 242.54 197.686C243.328 196.431 244.162 195.205 245.04 194.012C245.398 193.524 244.61 193.009 244.252 193.497C241.093 197.794 238.51 202.513 236.588 207.488C236.042 208.903 235.55 210.34 235.113 211.792C234.938 212.371 235.831 212.67 236.006 212.087Z" fill="#A4A4ED"/>
<path d="M248.131 203.36C253.364 203.006 258.49 201.558 263.15 199.156C264.461 198.48 265.731 197.726 266.953 196.901C267.455 196.563 266.921 195.788 266.419 196.127C262.202 198.971 257.398 200.948 252.396 201.876C250.963 202.143 249.515 202.323 248.061 202.422C247.456 202.462 247.528 203.4 248.131 203.36Z" fill="#A4A4ED"/>
<path d="M101.288 142.612C100.132 138.498 99.333 134.288 98.8922 130.039C98.4563 125.833 98.3662 121.592 98.6143 117.371C98.8649 113.104 99.4629 108.857 100.398 104.686C101.325 100.546 102.583 96.4787 104.168 92.5433C105.754 88.6079 107.663 84.8032 109.885 81.1887C110.162 80.7379 110.444 80.2913 110.731 79.8463C110.86 79.6445 110.53 79.4733 110.401 79.6743C108.078 83.2805 106.07 87.0852 104.392 91.0321C102.727 94.9518 101.384 99.0096 100.375 103.147C99.3653 107.287 98.6912 111.508 98.3546 115.756C98.0155 120.031 98.0229 124.335 98.3843 128.609C98.7441 132.853 99.4538 137.068 100.519 141.191C100.651 141.703 100.79 142.214 100.933 142.723C100.997 142.954 101.352 142.842 101.288 142.612Z" fill="#FC6681"/>
<path d="M109.087 82.493C108.115 79.7818 108.747 75.3708 110.832 72.5553C111.405 71.7811 112.095 71.0359 112.958 70.5016C113.822 69.9673 114.88 69.6679 115.755 69.8548C116.659 70.0483 117.247 70.7266 117.53 71.4941C118.248 73.4445 117.218 75.9432 115.487 77.8563C113.755 79.7702 111.419 81.2011 109.087 82.493Z" fill="#FC6681"/>
<path d="M104.869 91.1861C102.12 90.3284 98.9799 87.1664 97.989 83.8067C97.716 82.8828 97.5365 81.8828 97.6308 80.8721C97.7243 79.8613 98.1238 78.8357 98.8004 78.2501C99.4993 77.6455 100.395 77.5851 101.178 77.8217C103.168 78.423 104.541 80.7513 105.025 83.2856C105.508 85.8199 105.243 88.5468 104.869 91.1861Z" fill="#FC6681"/>
<path d="M104.397 91.2813C105.727 88.7263 109.395 86.1945 112.877 85.8132C113.835 85.7082 114.851 85.7082 115.828 85.9786C116.807 86.2491 117.745 86.8231 118.202 87.5932C118.673 88.388 118.575 89.2805 118.204 90.0091C117.26 91.8602 114.726 92.8015 112.146 92.8296C109.566 92.8594 106.929 92.1158 104.397 91.2813Z" fill="#FC6681"/>
<path d="M100.578 104.64C97.7293 104.211 94.1446 101.565 92.6533 98.3951C92.2431 97.5233 91.9131 96.563 91.8519 95.5498C91.7907 94.5366 92.028 93.4622 92.6078 92.7807C93.2067 92.076 94.0826 91.8799 94.8923 91.9949C96.9502 92.286 98.6623 94.3778 99.5274 96.8087C100.392 99.2387 100.546 101.974 100.578 104.64Z" fill="#FC6681"/>
<path d="M100.126 104.806C101.051 102.078 104.29 99.0171 107.673 98.1089C108.603 97.8591 109.607 97.7045 110.615 97.8228C111.623 97.941 112.639 98.3653 113.207 99.056C113.794 99.7698 113.833 100.666 113.577 101.444C112.927 103.417 110.565 104.734 108.02 105.155C105.475 105.577 102.756 105.244 100.126 104.806Z" fill="#FC6681"/>
<path d="M98.5515 119.157C95.6715 119.133 91.7502 117.017 89.828 114.089C89.2995 113.283 88.838 112.379 88.6345 111.384C88.431 110.39 88.5154 109.292 88.9934 108.536C89.4872 107.754 90.3268 107.436 91.1448 107.436C93.2225 107.436 95.2125 109.266 96.4102 111.551C97.6078 113.836 98.1446 116.523 98.5515 119.157Z" fill="#FC6681"/>
<path d="M98.127 119.386C98.6597 116.555 101.435 113.069 104.657 111.694C105.543 111.316 106.515 111.022 107.53 110.998C108.545 110.974 109.61 111.25 110.27 111.855C110.952 112.479 111.116 113.362 110.972 114.167C110.606 116.212 108.453 117.847 105.992 118.622C103.531 119.397 100.792 119.45 98.127 119.386Z" fill="#FC6681"/>
<path d="M99.2057 132.538C96.9493 132.991 93.535 131.978 91.5516 130.003C91.0057 129.46 90.497 128.828 90.1753 128.083C89.8535 127.339 89.7394 126.466 89.9892 125.796C90.2472 125.104 90.8519 124.719 91.492 124.584C93.1173 124.243 94.9733 125.348 96.2843 126.939C97.5961 128.531 98.4563 130.545 99.2057 132.538Z" fill="#FC6681"/>
<path d="M98.9122 132.786C98.865 130.485 100.465 127.304 102.76 125.701C103.391 125.261 104.103 124.871 104.893 124.686C105.683 124.5 106.561 124.543 107.177 124.907C107.813 125.283 108.086 125.946 108.105 126.6C108.153 128.26 106.737 129.891 104.939 130.901C103.141 131.91 101.007 132.401 98.9122 132.786Z" fill="#FC6681"/>
<path d="M206.486 201.082C207.772 197.007 209.409 193.047 211.367 189.25C213.305 185.492 215.552 181.894 218.072 178.498C220.618 175.065 223.445 171.84 226.51 168.862C229.553 165.905 232.832 163.191 236.314 160.767C239.796 158.342 243.477 156.203 247.316 154.396C247.794 154.171 248.275 153.951 248.758 153.736C248.977 153.639 248.794 153.314 248.576 153.411C244.658 155.156 240.894 157.24 237.329 159.624C233.789 161.992 230.444 164.652 227.334 167.561C224.221 170.473 221.346 173.636 218.737 177.005C216.112 180.397 213.762 184.001 211.724 187.776C209.701 191.524 207.987 195.44 206.62 199.474C206.451 199.974 206.286 200.477 206.127 200.982C206.055 201.21 206.414 201.311 206.486 201.082Z" fill="#BDD4EC"/>
<path d="M245.935 155.051C246.607 152.25 249.551 148.906 252.837 147.692C253.741 147.358 254.727 147.112 255.741 147.138C256.756 147.163 257.807 147.492 258.436 148.128C259.086 148.785 259.207 149.675 259.023 150.473C258.557 152.497 256.325 154.024 253.829 154.677C251.332 155.329 248.594 155.247 245.935 155.051Z" fill="#BDD4EC"/>
<path d="M237.645 160.015C235.814 157.792 234.919 153.426 235.93 150.072C236.208 149.15 236.605 148.215 237.237 147.421C237.868 146.626 238.764 145.986 239.651 145.867C240.567 145.744 241.35 146.184 241.875 146.811C243.21 148.404 243.084 151.104 242.102 153.489C241.119 155.874 239.404 158.011 237.645 160.015Z" fill="#BDD4EC"/>
<path d="M237.198 159.836C239.71 158.427 244.164 158.317 247.287 159.905C248.145 160.341 248.995 160.897 249.665 161.66C250.335 162.422 250.808 163.417 250.768 164.311C250.727 165.235 250.156 165.927 249.446 166.333C247.643 167.365 245.007 166.765 242.833 165.376C240.659 163.987 238.859 161.921 237.198 159.836Z" fill="#BDD4EC"/>
<path d="M226.687 168.921C224.538 167.002 222.988 162.825 223.475 159.356C223.609 158.402 223.86 157.419 224.363 156.537C224.866 155.655 225.654 154.887 226.511 154.634C227.398 154.372 228.238 154.687 228.854 155.227C230.416 156.597 230.703 159.285 230.095 161.792C229.489 164.3 228.119 166.673 226.687 168.921Z" fill="#BDD4EC"/>
<path d="M226.218 168.814C228.486 167.038 232.872 166.25 236.199 167.343C237.115 167.643 238.039 168.063 238.818 168.715C239.596 169.366 240.214 170.278 240.312 171.167C240.413 172.086 239.954 172.857 239.313 173.367C237.688 174.662 234.992 174.47 232.631 173.429C230.271 172.388 228.177 170.621 226.218 168.814Z" fill="#BDD4EC"/>
<path d="M217.041 179.959C214.644 178.362 212.522 174.443 212.517 170.94C212.517 169.977 212.626 168.967 213 168.024C213.374 167.08 214.046 166.208 214.86 165.837C215.701 165.453 216.578 165.647 217.262 166.095C219.001 167.232 219.664 169.853 219.414 172.421C219.165 174.99 218.143 177.531 217.041 179.959Z" fill="#BDD4EC"/>
<path d="M216.561 179.918C218.557 177.841 222.788 176.445 226.237 177.058C227.185 177.227 228.16 177.513 229.021 178.049C229.884 178.584 230.624 179.399 230.845 180.266C231.074 181.162 230.728 181.99 230.166 182.584C228.739 184.096 226.043 184.284 223.559 183.585C221.076 182.887 218.755 181.431 216.561 179.918Z" fill="#BDD4EC"/>
<path d="M210.26 191.513C208.124 190.657 205.822 187.94 205.245 185.201C205.086 184.447 205.006 183.64 205.145 182.841C205.284 182.042 205.666 181.25 206.241 180.826C206.837 180.389 207.554 180.397 208.163 180.634C209.709 181.239 210.657 183.18 210.882 185.23C211.108 187.279 210.724 189.435 210.26 191.513Z" fill="#BDD4EC"/>
<path d="M209.878 191.56C211.099 189.609 214.18 187.823 216.977 187.739C217.746 187.716 218.555 187.779 219.318 188.057C220.081 188.334 220.792 188.851 221.108 189.493C221.434 190.156 221.299 190.86 220.957 191.418C220.089 192.833 218.01 193.423 215.954 193.283C213.897 193.143 211.843 192.385 209.878 191.56Z" fill="#BDD4EC"/>
<path d="M81.7768 201.39C77.5958 202.27 73.3419 202.788 69.0724 202.945C64.8467 203.102 60.6094 202.91 56.4143 202.382C52.1729 201.849 47.9761 200.97 43.8761 199.761C39.8067 198.561 35.8316 197.037 32.0104 195.193C28.1891 193.35 24.5192 191.192 21.0603 188.735C20.6293 188.429 20.2017 188.118 19.7766 187.802C19.5839 187.659 19.3911 187.978 19.5822 188.12C23.0263 190.677 26.6887 192.933 30.5166 194.869C34.3172 196.791 38.2766 198.4 42.3385 199.681C46.4029 200.963 50.5699 201.916 54.7857 202.534C59.0296 203.156 63.3231 203.434 67.6117 203.357C71.8697 203.28 76.1235 202.851 80.3087 202.061C80.8281 201.964 81.3467 201.859 81.8645 201.75C82.0994 201.702 82.0117 201.34 81.7768 201.39Z" fill="#BDD4EC"/>
<path d="M22.3085 189.617C19.5385 190.407 15.1796 189.483 12.5089 187.217C11.7744 186.593 11.0763 185.856 10.6007 184.959C10.1252 184.062 9.89604 182.986 10.1417 182.125C10.3948 181.236 11.1111 180.694 11.8952 180.464C13.8885 179.876 16.3136 181.071 18.1076 182.925C19.9016 184.779 21.1745 187.205 22.3085 189.617Z" fill="#BDD4EC"/>
<path d="M30.7019 194.403C29.6631 197.089 26.3001 200.012 22.8816 200.778C21.9412 200.989 20.9321 201.102 19.9296 200.941C18.9272 200.781 17.9305 200.314 17.3912 199.601C16.8338 198.863 16.8329 197.965 17.1216 197.199C17.8536 195.255 20.2679 194.038 22.8287 193.724C25.3902 193.409 28.0941 193.855 30.7019 194.403Z" fill="#BDD4EC"/>
<path d="M30.7666 194.88C28.3059 193.383 26.0231 189.556 25.8734 186.057C25.832 185.094 25.8998 184.081 26.2348 183.123C26.5698 182.164 27.205 181.266 28.0032 180.862C28.8278 180.443 29.7112 180.601 30.4142 181.02C32.1991 182.085 32.97 184.676 32.8269 187.252C32.6838 189.827 31.7674 192.41 30.7666 194.88Z" fill="#BDD4EC"/>
<path d="M43.8415 199.577C43.2244 202.391 40.3461 205.792 37.0848 207.07C36.1874 207.422 35.2072 207.687 34.1924 207.68C33.1775 207.675 32.1213 207.366 31.4795 206.743C30.8161 206.098 30.6788 205.212 30.8467 204.411C31.2735 202.377 33.4745 200.807 35.9574 200.106C38.4396 199.405 41.1798 199.433 43.8415 199.577Z" fill="#BDD4EC"/>
<path d="M43.9771 200.039C41.3171 198.934 38.4776 195.5 37.7961 192.064C37.6083 191.119 37.5207 190.108 37.7059 189.11C37.8912 188.112 38.3817 187.127 39.1087 186.605C39.8597 186.065 40.7572 186.087 41.5156 186.394C43.442 187.174 44.5983 189.617 44.8505 192.184C45.102 194.753 44.59 197.445 43.9771 200.039Z" fill="#BDD4EC"/>
<path d="M58.1927 202.563C57.9776 205.436 55.6055 209.208 52.5559 210.931C51.7172 211.405 50.7843 211.805 49.7785 211.943C48.7727 212.079 47.6834 211.922 46.9605 211.395C46.2136 210.85 45.9523 209.991 46.006 209.175C46.1433 207.101 48.1011 205.238 50.4609 204.194C52.8206 203.151 55.5368 202.795 58.1927 202.563Z" fill="#BDD4EC"/>
<path d="M58.392 203.001C55.603 202.282 52.3095 199.281 51.1515 195.975C50.8331 195.066 50.604 194.077 50.647 193.062C50.69 192.048 51.0374 191.003 51.6833 190.385C52.3517 189.745 53.2425 189.64 54.0365 189.838C56.053 190.339 57.5418 192.596 58.1513 195.103C58.7626 197.61 58.6336 200.346 58.392 203.001Z" fill="#BDD4EC"/>
<path d="M71.5877 202.798C71.8904 205.08 70.6531 208.419 68.5505 210.267C67.9724 210.774 67.3082 211.241 66.544 211.513C65.7797 211.785 64.9021 211.841 64.2504 211.547C63.5771 211.243 63.2322 210.614 63.1404 209.967C62.908 208.323 64.1338 206.545 65.8087 205.342C67.4827 204.139 69.5489 203.414 71.5877 202.798Z" fill="#BDD4EC"/>
<path d="M71.816 203.107C69.5166 203.001 66.4489 201.194 65.0014 198.798C64.6036 198.139 64.262 197.403 64.1296 196.603C63.9973 195.803 64.0974 194.929 64.5018 194.339C64.9195 193.729 65.5994 193.501 66.2528 193.526C67.912 193.588 69.4463 195.109 70.3338 196.969C71.2221 198.83 71.5703 200.991 71.816 203.107Z" fill="#BDD4EC"/>
<path d="M102.461 215.491C94.1297 216.445 85.6179 214.361 78.1896 210.469C70.7613 206.578 64.3529 200.948 58.7773 194.684C41.8042 175.615 32.275 150.088 32.6001 124.561C36.7629 123.993 40.9506 125.251 44.8686 126.767C59.7194 132.51 73.0011 142.253 82.9397 154.694C92.8783 167.135 99.4472 182.24 101.77 197.992C102.421 202.417 103.388 211.116 102.461 215.491Z" fill="#E3E1FF"/>
<path d="M37.9119 129.943C46.6032 140.213 54.3259 151.247 61.8609 162.379C69.4 173.518 76.7712 184.782 84.8199 195.567C89.316 201.591 94.0256 207.46 99.0611 213.043C99.511 213.542 100.331 212.89 99.8791 212.387C90.8776 202.407 82.9473 191.53 75.3461 180.463C67.7259 169.368 60.4118 158.061 52.5526 147.131C48.1598 141.021 43.5933 135.033 38.7316 129.287C38.2949 128.773 37.4752 129.427 37.9119 129.943Z" fill="#A4A4ED"/>
<path d="M88.4493 199.121C84.1607 198.167 79.9399 196.909 75.8259 195.367C71.7135 193.826 67.7012 192.005 63.8427 189.907C61.6575 188.72 59.5211 187.444 57.4351 186.089C56.8718 185.724 56.2531 186.57 56.8205 186.939C60.5632 189.371 64.4763 191.544 68.5209 193.434C72.5588 195.322 76.7291 196.925 80.9912 198.231C83.4122 198.972 85.8629 199.614 88.3343 200.163C88.6105 200.224 88.8835 199.959 88.9124 199.7C88.9464 199.392 88.7263 199.182 88.4493 199.121Z" fill="#A4A4ED"/>
<path d="M80.2723 187.233C80.9439 183.055 80.8198 178.786 80.1962 174.609C79.5634 170.369 78.4353 166.218 77.1483 162.135C76.4179 159.82 75.6322 157.522 74.8398 155.227C74.619 154.588 73.6579 155.008 73.8771 155.641C75.2559 159.634 76.6231 163.638 77.69 167.728C78.7463 171.776 79.5188 175.92 79.6611 180.109C79.7405 182.452 79.6023 184.803 79.2301 187.118C79.1234 187.786 80.1656 187.898 80.2723 187.233Z" fill="#A4A4ED"/>
<path d="M66.4771 167.655C60.9198 165.69 55.6362 162.99 50.7943 159.628C49.4378 158.686 48.1186 157.692 46.8357 156.653C46.3122 156.228 45.6976 157.078 46.2212 157.502C50.8373 161.244 55.953 164.365 61.3888 166.765C62.9354 167.448 64.5078 168.07 66.1016 168.633C66.7369 168.858 67.1157 167.881 66.4771 167.655Z" fill="#A4A4ED"/>
<path d="M57.4012 153.702C57.2821 147.861 55.9405 142.08 53.5113 136.768C52.8281 135.274 52.0556 133.821 51.202 132.418C50.8513 131.841 49.9622 132.395 50.312 132.972C53.2557 137.814 55.2036 143.263 55.9744 148.88C56.1953 150.488 56.3202 152.109 56.3532 153.732C56.3665 154.408 57.4144 154.377 57.4012 153.702Z" fill="#A4A4ED"/>
<path d="M87.6867 256.211C82.5371 256.211 78.3619 252.036 78.3619 246.886C78.3619 241.737 82.5371 237.562 87.6867 237.562H202.543C203.209 237.562 203.749 237.022 203.749 236.355V236.316C203.749 235.678 203.232 235.161 202.595 235.161H86.025C79.4479 235.161 74.1155 240.494 74.1155 247.071C74.1155 253.648 79.4479 258.981 86.025 258.981H202.349C203.122 258.981 203.749 258.354 203.749 257.58V257.512C203.749 256.794 203.166 256.211 202.448 256.211L87.6867 256.211Z" fill="#766CFF"/>
<path d="M78.3618 246.887C78.3618 252.036 82.4957 256.211 87.5949 256.211H202.519L202.353 255.569C200.888 249.874 200.888 243.9 202.353 238.205L202.519 237.563H87.5949C82.4957 237.562 78.3618 241.737 78.3618 246.887Z" fill="#EDEDF9"/>
<path d="M81.0706 248.732C81.0706 243.583 85.2045 239.407 90.3037 239.407H202.084C202.172 239.006 202.251 238.603 202.353 238.204L202.519 237.561H87.5949C82.4957 237.561 78.3618 241.736 78.3618 246.886C78.3618 250.697 80.6281 253.968 83.8704 255.415C82.1459 253.721 81.0706 251.355 81.0706 248.732Z" fill="#DCDCEF"/>
<path d="M163.374 244.666H113.149V245.351H163.374V244.666Z" fill="#DCDCEF"/>
<path d="M194.941 251.218H144.716V251.903H194.941V251.218Z" fill="#DCDCEF"/>
<path d="M131.47 245.093V255.795L136.335 251.828L141.123 255.661L140.568 245.053L131.47 245.093Z" fill="#FC6681"/>
<path d="M210.201 235.162H98.5359C94.2399 235.162 90.7578 231.679 90.7578 227.383V225.349C90.7578 221.053 94.2407 217.571 98.5359 217.571H210.201C214.497 217.571 217.979 221.053 217.979 225.349V227.383C217.979 231.679 214.497 235.162 210.201 235.162Z" fill="#06005A"/>
<path opacity="0.43" d="M200.438 217.571H198.345V235.162H200.438V217.571Z" fill="white"/>
<path opacity="0.43" d="M191.174 217.571H189.081V235.162H191.174V217.571Z" fill="white"/>
<path d="M90.7569 222.483V224.984L190.374 217.571H96.7816C93.4541 217.571 90.7569 220.667 90.7569 222.483Z" fill="#000033"/>
<path opacity="0.43" d="M108.114 217.571H106.021V235.162H108.114V217.571Z" fill="white"/>
<path opacity="0.43" d="M116.977 217.571H114.885V235.162H116.977V217.571Z" fill="white"/>
<path d="M97.5996 205.475C97.5996 210.626 101.452 214.8 106.205 214.8H213.319L213.164 214.158C211.798 208.463 211.798 202.489 213.164 196.794L213.319 196.151H106.205C101.452 196.151 97.5996 200.326 97.5996 205.475Z" fill="#EDEDF9"/>
<path d="M106.29 214.8C101.49 214.8 97.5988 210.626 97.5988 205.475C97.5988 200.326 101.49 196.151 106.29 196.151H213.341C213.963 196.151 214.466 195.611 214.466 194.944V194.906C214.466 194.268 213.984 193.751 213.389 193.751H104.742C98.6112 193.751 93.6411 199.084 93.6411 205.661C93.6411 212.239 98.6112 217.57 104.742 217.57H213.161C213.882 217.57 214.466 216.943 214.466 216.17V216.103C214.466 215.383 213.923 214.801 213.253 214.801H106.29V214.8Z" fill="#766CFF"/>
<path d="M100.123 207.322C100.123 202.173 103.976 197.998 108.729 197.998H212.914C212.996 197.596 213.069 197.193 213.165 196.794L213.32 196.151H106.205C101.452 196.151 97.5988 200.327 97.5988 205.476C97.5988 209.287 99.7104 212.558 102.734 214.005C101.126 212.31 100.123 209.944 100.123 207.322Z" fill="#DCDCEF"/>
<path d="M164.045 203.276H113.82V203.961H164.045V203.276Z" fill="#DCDCEF"/>
<path d="M195.611 209.828H145.387V210.512H195.611V209.828Z" fill="#DCDCEF"/>
<path d="M188.29 143.979C192.769 143.979 196.4 140.348 196.4 135.868C196.4 131.389 192.769 127.758 188.29 127.758H88.3854C87.8056 127.758 87.3358 127.288 87.3358 126.708V126.675C87.3358 126.12 87.7858 125.67 88.3408 125.67H189.736C195.457 125.67 200.095 130.308 200.095 136.03C200.095 141.751 195.457 146.389 189.736 146.389H88.5542C87.8817 146.389 87.3367 145.844 87.3367 145.171V145.112C87.3367 144.487 87.8437 143.98 88.469 143.98H188.29V143.979Z" fill="#FC6681"/>
<path d="M196.4 135.868C196.4 140.348 192.805 143.979 188.369 143.979H88.407L88.551 143.42C89.8264 138.466 89.8264 133.27 88.551 128.317L88.407 127.758H188.37C192.805 127.757 196.4 131.389 196.4 135.868Z" fill="#EDEDF9"/>
<path d="M194.045 137.473C194.045 132.994 190.449 129.363 186.014 129.363H88.785C88.7081 129.014 88.6403 128.663 88.551 128.316L88.407 127.756H188.37C192.806 127.756 196.401 131.388 196.401 135.867C196.401 139.181 194.43 142.027 191.61 143.285C193.109 141.812 194.045 139.755 194.045 137.473Z" fill="#DCDCEF"/>
<path d="M166.142 133.937H122.456V134.533H166.142V133.937Z" fill="#DCDCEF"/>
<path d="M178.36 139.338H134.673V139.934H178.36V139.338Z" fill="#DCDCEF"/>
<path d="M203.713 193.711H92.0485C87.7525 193.711 84.2704 190.228 84.2704 185.932V178.046C84.2704 173.75 87.7525 170.267 92.0485 170.267H203.713C208.009 170.267 211.492 173.75 211.492 178.046V185.932C211.492 190.228 208.009 193.711 203.713 193.711Z" fill="#FC6681"/>
<path opacity="0.43" d="M193.95 170.268H191.857V193.711H193.95V170.268Z" fill="white"/>
<path opacity="0.43" d="M184.686 170.268H182.593V193.711H184.686V170.268Z" fill="white"/>
<path d="M84.269 176.293V180.148L183.886 170.268H90.2937C86.9662 170.268 84.269 172.966 84.269 176.293Z" fill="#EA496C"/>
<path opacity="0.43" d="M101.626 170.268H99.5333V193.711H101.626V170.268Z" fill="white"/>
<path opacity="0.43" d="M110.489 170.268H108.397V193.711H110.489V170.268Z" fill="white"/>
<path d="M89.0199 167.438C84.8215 167.438 81.4179 163.263 81.4179 158.113C81.4179 152.963 84.8215 148.788 89.0199 148.788H182.656C183.2 148.788 183.641 148.248 183.641 147.581V147.543C183.641 146.905 183.219 146.388 182.699 146.388H87.6651C82.3029 146.388 77.9556 151.721 77.9556 158.298C77.9556 164.875 82.3029 170.208 87.6651 170.208H182.498C183.129 170.208 183.64 169.581 183.64 168.807V168.74C183.64 168.021 183.164 167.438 182.578 167.438H89.0199V167.438Z" fill="#766CFF"/>
<path d="M81.4188 158.114C81.4188 163.263 84.7884 167.439 88.9463 167.439H182.637L182.502 166.796C181.307 161.101 181.307 155.128 182.502 149.432L182.637 148.79H88.9455C84.7884 148.789 81.4188 152.963 81.4188 158.114Z" fill="#EDEDF9"/>
<path d="M83.6264 159.96C83.6264 154.81 86.996 150.635 91.1539 150.635H182.283C182.354 150.234 182.419 149.83 182.503 149.432L182.637 148.789H88.9455C84.7885 148.789 81.418 152.963 81.418 158.114C81.418 161.924 83.2658 165.195 85.9092 166.642C84.5031 164.947 83.6264 162.582 83.6264 159.96Z" fill="#DCDCEF"/>
<path d="M150.724 155.893H109.779V156.578H150.724V155.893Z" fill="#DCDCEF"/>
<path d="M176.459 162.445H135.513V163.13H176.459V162.445Z" fill="#DCDCEF"/>
<path d="M146.789 162.826V173.529L150.756 169.561L154.659 173.395L154.206 162.787L146.789 162.826Z" fill="#06005A"/>
<path d="M169.932 33.2922C169.131 37.5684 166.816 41.5451 163.495 44.354C163.378 44.4524 163.252 44.5632 163.231 44.7146C163.209 44.8635 163.298 45.0057 163.397 45.1199C163.797 45.5806 164.401 45.8014 164.984 45.9817C167.179 46.6591 169.476 47.009 171.773 47.0156C172.202 47.0165 172.669 46.9925 172.993 46.7121C173.23 46.5078 173.347 46.2017 173.454 45.9081C174.309 43.5533 175.011 41.1431 175.553 38.6974C175.578 38.5865 175.602 38.4716 175.58 38.3607C175.534 38.1407 175.324 38.0009 175.135 37.881C173.71 36.9803 172.437 35.8397 171.385 34.5221" fill="#FF948C"/>
<path d="M175.579 38.3592C175.533 38.1392 175.323 37.9994 175.134 37.8794C173.709 36.9787 172.436 35.8381 171.385 34.5206L169.933 33.2915C169.862 33.6736 169.763 34.0499 169.668 34.4263C169.808 34.7952 169.897 35.2062 169.915 35.6636C169.985 37.3766 171.74 39.1673 172.397 40.7503C173.274 42.8644 173.282 44.8983 172.599 46.9156C172.742 46.8701 172.878 46.8106 172.993 46.7113C173.23 46.507 173.347 46.201 173.454 45.9074C174.309 43.5526 175.011 41.1424 175.553 38.6966C175.577 38.5858 175.601 38.4708 175.579 38.3592Z" fill="#EF7E7B"/>
<path d="M187.261 44.7436C186.422 42.9231 186.329 40.7718 187.006 38.8852C187.362 37.8943 187.922 36.9646 188.087 35.9249C188.328 34.4022 187.684 32.8845 186.939 31.5346C186.194 30.1856 185.316 28.8639 185.021 27.3511C184.631 25.3495 185.393 23.1643 186.943 21.8401L188.714 22.7698C187.975 24.931 188.157 27.3908 189.206 29.4197C189.777 30.5239 190.597 31.5214 190.901 32.7257C191.417 34.7662 190.348 36.8414 189.272 38.6503C188.195 40.4592 187.03 42.4426 187.344 44.5244" fill="#06005A"/>
<path d="M179.712 11.8716C182.255 12.1098 184.675 13.4588 186.215 15.4977C187.756 17.5365 188.391 20.2329 187.924 22.7448C187.689 24.0111 187.191 25.2195 186.998 26.4925C186.805 27.7654 186.977 29.1963 187.89 30.1053C188.235 30.4485 188.52 30.69 188.833 31.0622C189.147 31.4336 189.342 31.7289 189.064 32.1276C188.699 32.6503 187.995 32.819 187.478 33.1912C187.191 33.3972 187.031 33.7297 186.876 34.0473C185.553 36.7627 183.876 39.3052 181.9 41.5905C181.794 41.7138 181.68 41.8403 181.527 41.8966C181.295 41.9826 181.039 41.8858 180.811 41.789C178.27 40.7171 175.71 39.6361 173.42 38.1001C171.13 36.5642 169.098 34.5254 168.012 31.9911C166.988 29.604 166.867 26.8431 167.677 24.375" fill="#FF948C"/>
<path d="M186.254 27.4895C186.254 27.8899 186.025 28.2149 185.743 28.2149C185.461 28.2149 185.232 27.8899 185.232 27.4895C185.232 27.0892 185.46 26.7642 185.743 26.7642C186.026 26.765 186.254 27.0892 186.254 27.4895Z" fill="#06005A"/>
<path opacity="0.51" d="M184.92 31.9591C184.92 33.1336 183.968 34.0848 182.794 34.0848C181.619 34.0848 180.668 33.1328 180.668 31.9591C180.668 30.7846 181.62 29.8334 182.794 29.8334C183.968 29.8326 184.92 30.7846 184.92 31.9591Z" fill="#F96662"/>
<path d="M186.023 35.5322L183.509 35.0128C183.509 35.0128 184.636 36.2063 185.241 36.3759C185.846 36.5454 186.023 35.5322 186.023 35.5322Z" fill="#F96662"/>
<path d="M165.437 16.5548C161.866 17.3522 158.778 16.4572 157.527 15.9237C156.276 15.3894 155.134 14.5019 154.525 13.2861C153.92 12.0785 153.889 10.6476 154.171 9.3267C154.955 5.67584 158.24 2.70486 161.951 2.29213C164.084 2.05475 166.34 2.63951 167.952 4.05635C169.564 5.47319 170.442 7.74941 169.993 9.84861" fill="#06005A"/>
<path d="M189.271 13.7691C187.885 12.0165 183.437 8.029 177.286 7.8735C173.628 7.6477 170.719 8.02568 168.203 9.55501C165.686 11.0852 164.309 13.2936 162.809 15.8278C161.015 18.8584 159.883 20.8401 160.004 24.3595C160.126 27.8788 161.725 31.1029 164.486 33.2906C165.226 33.877 167.152 35.4287 168.091 35.5346C169.258 35.6661 169.24 35.9308 170.109 35.1409C170.978 34.351 171.57 33.298 172.008 32.2087C172.491 31.0086 172.924 29.6042 174.097 29.0566C175.06 28.6067 176.107 28.9152 177.173 29.1948C177.166 29.4503 177.164 29.7067 177.187 29.9623C177.355 31.8225 178.247 33.5247 178.977 35.2434C179.707 36.9622 180.292 38.872 179.813 40.6775C179.485 41.9108 178.694 42.9604 178.141 44.1101C177.089 46.2994 176.934 48.9032 177.717 51.2017L177.843 50.9486C177.725 48.4011 179.377 46.1563 180.9 44.1109C182.422 42.0654 183.97 39.6974 183.603 37.1739C183.386 35.6843 182.522 34.3799 181.973 32.978C181.46 31.6695 181.233 30.2559 181.283 28.8523C181.453 28.7704 181.622 28.6877 181.788 28.6026C184.616 27.1477 187.42 25.3752 189.146 22.7036C190.873 20.0337 191.244 16.2645 189.271 13.7691Z" fill="#06005A"/>
<path d="M162.055 18.3346C162.055 18.3346 160.968 18.3338 162.81 15.8293C164.652 13.3248 169.667 8.315 169.667 8.315C169.667 8.315 170.485 7.82039 169.035 10.9518C167.585 14.0825 164.206 16.9831 162.055 18.3346Z" fill="#FC6681"/>
<path d="M169.897 8.40788C169.897 8.40788 170.594 8.08861 171.648 9.55591C172.701 11.0232 174.069 14.4119 174.069 14.4119C174.069 14.4119 174.195 14.9528 172.725 13.5897C171.255 12.2258 170.258 9.83878 169.897 8.40788Z" fill="#FC6681"/>
<path d="M169.897 8.60384C169.897 8.60384 169.913 7.9405 171.336 7.39047C172.758 6.83962 175.676 6.46576 175.676 6.46576C175.676 6.46576 176.12 6.47651 174.647 7.38964C173.173 8.30277 171.079 8.61128 169.897 8.60384Z" fill="#FC6681"/>
<path d="M170.908 8.54505C170.908 9.10335 170.456 9.55578 169.897 9.55578C169.339 9.55578 168.887 9.10335 168.887 8.54505C168.887 7.98675 169.339 7.53432 169.897 7.53432C170.456 7.53432 170.908 7.98675 170.908 8.54505Z" fill="#FC6681"/>
<path d="M175.64 28.9406C176.058 29.9398 176.082 32.4583 175.026 32.7032C174.335 32.8636 173.592 32.6097 173.043 32.1598C172.494 31.709 172.116 31.0829 171.826 30.4344C171.456 29.6048 171.212 28.671 171.433 27.7901C171.654 26.9093 172.455 26.1276 173.361 26.1814C173.998 26.2186 174.56 26.6487 174.917 27.1781C175.273 27.7058 175.46 28.3286 175.64 28.9406Z" fill="#FF948C"/>
<path d="M175.345 31.3541C172.647 31.3541 171.494 28.9646 171.877 26.9133C171.669 27.1706 171.513 27.4725 171.433 27.7892C171.212 28.6701 171.456 29.6047 171.826 30.4335C172.116 31.082 172.494 31.7089 173.043 32.1589C173.592 32.6088 174.335 32.8636 175.026 32.7023C175.504 32.5914 175.759 32.0116 175.858 31.3185C175.693 31.34 175.523 31.3541 175.345 31.3541Z" fill="#EF7E7B"/>
<path d="M212.626 160.313C213.045 164.037 213.895 168.042 210.584 173.854C210.215 174.502 209.67 175.09 209.598 175.832C209.469 177.16 210.728 178.232 211.992 178.658C213.257 179.084 214.649 179.134 215.836 179.744C217.266 180.479 218.181 181.908 219.32 183.043C220.832 184.549 222.817 185.574 224.92 185.934C225.163 185.975 225.487 185.965 225.567 185.731C225.605 185.62 225.568 185.498 225.524 185.39C224.99 184.048 223.605 183.272 222.693 182.154C221.796 181.056 221.377 179.653 220.686 178.415C220.122 177.402 219.197 175.504 218.756 174.433C218.045 172.706 218.345 170.857 218.741 169.032C219.136 167.207 220.044 162.806 220.752 160.891" fill="#FF948C"/>
<path d="M167.304 101.56C177.587 98.1734 188.477 96.6366 199.296 97.0452C207.324 97.3487 216.045 99.1196 221.154 105.319C224.836 109.785 225.238 111.917 225.581 117.694C225.894 122.941 225.197 131.703 224.738 136.939C223.958 145.836 223.762 155.074 221.769 163.778C221.703 164.067 221.628 164.37 221.427 164.588C221.219 164.813 220.909 164.909 220.612 164.987C218.14 165.641 215.516 165.717 213.011 165.206C212.649 165.132 212.269 165.035 212.016 164.767C211.747 164.483 211.678 164.069 211.627 163.682C210.809 157.517 210.115 147.919 209.588 141.722C209.164 136.726 209.239 135.116 207.599 130.379C207.16 129.111 206.656 127.82 205.731 126.848C203.846 124.865 200.775 124.71 198.043 124.852C188.795 125.334 179.45 127.696 170.389 125.783" fill="#00001E"/>
<path d="M200.696 124.682C200.082 128.379 198.083 131.829 195.181 134.201C194.604 134.673 193.965 135.14 193.693 135.834C193.205 137.077 194.124 138.452 195.224 139.207C196.325 139.962 197.65 140.39 198.625 141.301C199.8 142.4 200.289 144.023 201.075 145.427C202.118 147.289 203.747 148.817 205.673 149.738C205.895 149.845 206.209 149.922 206.35 149.719C206.417 149.623 206.414 149.496 206.402 149.38C206.254 147.943 205.135 146.819 204.562 145.493C203.999 144.191 203.979 142.727 203.653 141.348C203.386 140.22 203.014 138.141 202.884 136.99C202.672 135.134 203.268 134.291 204.146 132.642C205.026 130.995 207.374 128.113 208.578 126.464" fill="#FF948C"/>
<path d="M147.79 107.535C147.345 111.885 147.217 116.923 149.817 120.529C153.633 125.825 161.295 126.787 167.813 127.113C174.332 127.439 180.862 126.863 186.506 123.585C192.15 120.307 197.048 115.894 201.678 111.294C208.417 104.598 214.681 97.4415 220.773 90.153C210.868 99.9096 201.531 111.088 198.221 124.592C198.153 124.871 198.088 125.167 198.176 125.44C198.3 125.822 198.683 126.048 199.037 126.238C201.792 127.729 204.548 129.219 207.304 130.709C207.683 130.914 208.094 131.125 208.522 131.073C209.038 131.01 209.424 130.586 209.759 130.188C214.219 124.884 218.202 119.198 222.053 113.437C227.634 105.088 233.109 96.0958 233.786 86.0762C233.958 83.5262 233.719 80.7223 231.984 78.8456C230.063 76.7687 226.928 76.4569 224.099 76.4792C212.547 76.5727 200.117 83.8628 189.794 89.0463C179.471 94.2306 167.459 108.055 160.103 92.5028" fill="#080866"/>
<path d="M232.087 58.1819L246.38 39.6894C246.754 39.2055 247.528 39.4338 247.58 40.0434L248.744 53.8908L239.988 67.6143L232.087 58.1819Z" fill="#FC6681"/>
<path d="M225.34 61.8547L245.107 39.0513L248.271 53.5621L225.34 61.8547Z" fill="#ECEBF2"/>
<path d="M223.14 61.8547L233.396 43.1975L248.744 53.8896L223.14 61.8547Z" fill="white"/>
<path d="M213.991 70.0633C216.582 65.8682 225.48 51.7792 227.93 47.9017C228.299 47.3177 229.02 47.0663 229.673 47.2921L248.744 53.89L234.479 76.2459C234.267 76.5768 233.866 76.7331 233.486 76.6322L214.602 71.5901C213.938 71.4131 213.631 70.6481 213.991 70.0633Z" fill="#FC6681"/>
<path d="M248.317 53.7425C248.11 54.5481 247.589 55.2999 246.663 55.8458C244.173 57.3123 242.418 60.0186 240.136 61.8242C237.791 63.6777 235.262 65.4279 232.626 66.8414C227.299 69.6991 220.56 71.24 214.546 71.5676C214.565 71.5742 214.582 71.5849 214.602 71.5899L233.486 76.632C233.866 76.7337 234.268 76.5774 234.479 76.2457L248.744 53.8897L248.317 53.7425Z" fill="#F25375"/>
<path d="M165.903 41.6897C158.821 46.0974 153.961 53.4901 151.281 61.3898C148.601 69.2896 147.921 77.7236 147.739 86.0634C147.557 94.4031 147.851 102.769 147.032 111.071C146.976 111.643 147.034 112.4 147.592 112.542C147.961 112.635 148.317 112.372 148.612 112.131C156.96 105.282 167.757 102.344 177.312 97.3146C177.875 97.0185 178.46 96.6917 178.799 96.1533C179.015 95.8125 179.114 95.4139 179.21 95.0218C179.581 93.5082 179.952 91.9946 180.324 90.481C181.952 83.8492 183.587 77.1612 183.842 70.3375C184.097 63.5138 182.558 58.1724 178.858 52.4322C178.158 51.347 175.581 46.7483 174.658 45.8443C172.312 43.5474 169.408 45.0238 165.903 41.6897Z" fill="#90AEE4"/>
<path d="M180.399 52.8361C179.847 54.071 178.706 55.0147 177.158 54.9204C171.453 54.5755 165.319 54.5672 159.595 53.7021C158.999 60.3231 160.232 67.2957 163.976 72.8712C168.168 79.1134 174.723 83.0604 181.335 86.2985C182.575 81.0365 183.642 75.7297 183.843 70.3369C184.067 64.3313 183.145 58.1462 180.399 52.8361Z" fill="#6C97D3"/>
<path d="M224.565 71.3934C225.637 72.0005 227.036 71.4389 227.893 70.5531C228.75 69.6673 229.334 68.7194 230.091 67.7467C231.005 66.5722 232.931 65.6988 234.755 64.4482C234.973 64.2993 235.262 64.4912 235.193 64.746C234.894 65.8377 233.247 67.6111 232.978 68.6276C232.947 68.7442 232.921 68.8815 232.999 68.9741C233.073 69.0618 233.207 69.0626 233.322 69.0511C235.363 68.8459 236.899 67.1148 238.816 66.3811C239.096 66.2736 239.406 66.1876 239.692 66.2761C240.311 66.4672 239.846 67.7227 239.695 68.353C239.381 69.6565 238.343 71.1031 237.334 71.9865C233.69 75.1816 229.315 75.8938 224.515 75.2221" fill="#FF948C"/>
<path d="M159.933 49.6196C162.566 47.7231 165.962 47.6106 169.075 48.1573C175.05 49.2069 180.538 52.4012 185.555 56.1017C190.215 59.5392 194.612 63.4737 199.67 66.1585C206.455 69.7598 214.15 70.9368 221.69 70.7101C223.123 70.6671 224.632 70.5927 225.907 71.3106C227.182 72.0285 228.054 73.8647 227.318 75.2096C226.869 76.0301 225.989 76.4205 225.171 76.758C219.197 79.2178 213.194 81.6859 206.947 83.1201C200.7 84.5543 194.147 84.9224 187.966 83.178C179.455 80.7761 172.278 74.5901 165.898 67.9807C164.012 66.0254 162.142 63.9799 160.904 61.4821C159.665 58.9834 157.07 53.1911 159.933 49.6196Z" fill="#90AEE4"/>
<g opacity="0.46">
<path d="M169.101 55.1697C170.184 55.1697 170.186 53.4857 169.101 53.4857C168.018 53.4857 168.016 55.1697 169.101 55.1697Z" fill="white"/>
</g>
<g opacity="0.46">
<path d="M182.681 73.232C183.765 73.232 183.766 71.548 182.681 71.548C181.598 71.5488 181.596 73.232 182.681 73.232Z" fill="white"/>
</g>
<g opacity="0.46">
<path d="M184.527 59.9161C185.61 59.9161 185.612 58.2321 184.527 58.2321C183.443 58.2321 183.441 59.9161 184.527 59.9161Z" fill="white"/>
</g>
<g opacity="0.46">
<path d="M172.529 67.4316C173.613 67.4316 173.614 65.7476 172.529 65.7476C171.446 65.7476 171.444 67.4316 172.529 67.4316Z" fill="white"/>
</g>
<g opacity="0.46">
<path d="M198.502 72.1772C199.586 72.1772 199.587 70.4932 198.502 70.4932C197.419 70.4932 197.417 72.1772 198.502 72.1772Z" fill="white"/>
</g>
<g opacity="0.46">
<path d="M195.624 81.9342C196.708 81.9342 196.709 80.2502 195.624 80.2502C194.541 80.2502 194.539 81.9342 195.624 81.9342Z" fill="white"/>
</g>
<g opacity="0.46">
<path d="M214.982 75.8688C216.066 75.8688 216.068 74.1848 214.982 74.1848C213.899 74.1856 213.897 75.8688 214.982 75.8688Z" fill="white"/>
</g>
<g opacity="0.46">
<path d="M175.43 93.0085C176.514 93.0085 176.515 91.3245 175.43 91.3245C174.347 91.3245 174.345 93.0085 175.43 93.0085Z" fill="white"/>
</g>
<g opacity="0.46">
<path d="M164.882 79.9563C165.965 79.9563 165.967 78.2723 164.882 78.2723C163.799 78.2723 163.798 79.9563 164.882 79.9563Z" fill="white"/>
</g>
<g opacity="0.46">
<path d="M161.982 96.9642C163.066 96.9642 163.067 95.2802 161.982 95.2802C160.899 95.2802 160.897 96.9642 161.982 96.9642Z" fill="white"/>
</g>
<g opacity="0.46">
<path d="M151.83 106.325C152.913 106.325 152.915 104.641 151.83 104.641C150.746 104.641 150.745 106.325 151.83 106.325Z" fill="white"/>
</g>
<g opacity="0.46">
<path d="M152.225 85.3612C153.309 85.3612 153.31 83.6772 152.225 83.6772C151.142 83.678 151.14 85.3612 152.225 85.3612Z" fill="white"/>
</g>
<g opacity="0.46">
<path d="M158.027 69.0127C159.11 69.0127 159.112 67.3287 158.027 67.3287C156.943 67.3295 156.942 69.0127 158.027 69.0127Z" fill="white"/>
</g>
<g opacity="0.46">
<path d="M158.027 56.3563C159.11 56.3563 159.112 54.6723 158.027 54.6723C156.943 54.6723 156.942 56.3563 158.027 56.3563Z" fill="white"/>
</g>
<g opacity="0.46">
<path d="M178.594 83.1196C179.677 83.1196 179.679 81.4356 178.594 81.4356C177.51 81.4365 177.508 83.1196 178.594 83.1196Z" fill="white"/>
</g>
<g opacity="0.46">
<path d="M150.248 72.1772C151.331 72.1772 151.333 70.4932 150.248 70.4932C149.164 70.4932 149.163 72.1772 150.248 72.1772Z" fill="white"/>
</g>
</svg>
