<svg width="20" height="20" viewBox="0 0 18 18" fill="none" xmlns="http://www.w3.org/2000/svg">
<path d="M9.82031 6.5V4.82031H8.17969V6.5H9.82031ZM9.82031 13.1797V8.17969H8.17969V13.1797H9.82031ZM3.10156 3.14062C4.74219 1.5 6.70833 0.679688 9 0.679688C11.2917 0.679688 13.2448 1.5 14.8594 3.14062C16.5 4.75521 17.3203 6.70833 17.3203 9C17.3203 11.2917 16.5 13.2578 14.8594 14.8984C13.2448 16.513 11.2917 17.3203 9 17.3203C6.70833 17.3203 4.74219 16.513 3.10156 14.8984C1.48698 13.2578 0.679688 11.2917 0.679688 9C0.679688 6.70833 1.48698 4.75521 3.10156 3.14062Z" fill="#8872DE"/>
</svg>
