<svg width="112" height="124" viewBox="0 0 112 124" fill="none" xmlns="http://www.w3.org/2000/svg">
<path fill-rule="evenodd" clip-rule="evenodd" d="M49.5977 0.28774C39.4863 1.44831 29.0585 5.75686 21.2103 12.0165C4.45452 25.3811 -3.15214 46.5779 1.21001 67.75C2.1478 72.3013 5.66435 81.8129 6.40934 81.8129C6.5569 81.8129 6.60821 81.2005 6.52434 80.444C6.44106 79.6912 6.2396 75.768 6.07706 71.726C5.91452 67.6841 5.70846 63.8084 5.61912 63.1132L5.45659 61.8492L8.14573 62.0478C14.1662 62.4925 18.3739 63.1571 21.9902 64.2343C32.8546 67.4711 40.4316 71.7185 46.8765 78.1851C50.9753 82.2979 53.9965 86.2189 55.2784 89.0899C55.5435 89.6844 55.8389 90.1706 55.9346 90.1706C56.03 90.1706 56.5242 89.3594 57.0329 88.368C59.0871 84.3623 64.5234 78.1153 69.0568 74.5509C74.7478 70.0761 82.4452 66.2531 89.8012 64.2484C91.6868 63.7346 98.0062 62.5037 98.7586 62.5037C99.1419 62.5037 99.4558 62.3582 99.4558 62.1804C99.4558 61.9654 99.5768 61.9501 99.816 62.1345C100.047 62.3126 101.244 62.3138 103.146 62.1377C104.779 61.9864 106.171 61.9181 106.238 61.9855C106.306 62.053 106.171 65.8609 105.938 70.4476C105.706 75.0342 105.525 79.5001 105.536 80.3719L105.557 81.957L106.881 79.2191C110.694 71.3295 112.564 61.1405 111.851 52.1433C110.992 41.3152 107.668 32.0572 101.473 23.2377C99.2702 20.1016 92.7926 13.4926 89.5732 11.0966C79.7987 3.82132 67.7913 -0.111987 55.7072 0.00242755C53.5356 0.0228895 50.7865 0.151423 49.5977 0.28774ZM28.9138 40.3416C33.3491 43.2775 36.1135 45.524 39.6719 49.0841C46.9111 56.3265 51.7756 64.4877 54.0351 73.1817C55.5023 78.826 55.3184 78.9318 52.8082 73.8875C49.0302 66.2955 44.5574 59.9852 39.2001 54.6875C34.6676 50.2061 29.2905 46.2912 24.7992 44.2032C23.7764 43.7277 22.8588 43.2282 22.7605 43.0934C22.6619 42.9588 22.4939 41.8564 22.3867 40.6437C22.2798 39.4312 22.1132 37.93 22.0167 37.3078L21.8409 36.1763L24.1193 37.4262C25.3724 38.1136 27.5299 39.4257 28.9138 40.3416ZM89.9453 51.2389C79.6699 54.6705 72.2229 58.9635 66.1537 64.9534C62.9709 68.0947 60.61 71.1208 58.7961 74.3838C57.5257 76.6692 57.5476 76.2302 58.8713 72.8788C61.2968 66.7373 65.9627 60.7552 71.2125 57.0568C77.2436 52.8076 85.0641 50.2328 92.9713 49.8928C93.8175 49.8565 93.0128 50.2144 89.9453 51.2389Z" fill="#5E41D2"/>
<path fill-rule="evenodd" clip-rule="evenodd" d="M40.6699 2.12999C34.1855 3.71507 33.8135 4.43546 25.8579 8.61439C10.0071 19.1336 -0.944344 35.9581 0.0643418 59.0491C0.516022 69.389 5.65969 81.7814 6.40468 81.7814C6.55223 81.7814 6.05624 72.4863 5.97238 71.7297C5.88909 70.977 5.70263 67.1258 5.54008 63.0838C5.37754 59.0419 5.43601 55.1331 5.34666 54.4379V53.1719L8.03581 53.3704C14.0562 53.8151 18.2639 54.4797 21.8802 55.557C32.7447 58.7937 40.3216 63.0411 46.7666 69.5077C50.8653 73.6206 53.8865 77.5415 55.1684 80.4125C55.4336 81.007 55.7289 81.4932 55.8246 81.4932C55.92 81.4932 56.4143 80.6819 56.9229 79.6905C58.9772 75.6849 64.4135 69.438 68.9468 65.8736C74.6378 61.3987 82.3353 57.5758 89.6913 55.5711C91.5769 55.0572 97.8963 53.8263 98.6487 53.8263C99.032 53.8263 99.3459 53.6808 99.3459 53.503C99.3459 53.288 99.4669 53.2727 99.7061 53.4572C99.937 53.6353 101.134 53.6364 103.036 53.4603C104.669 53.309 106.061 53.2407 106.129 53.3082C106.196 53.3756 106.361 57.1651 106.129 61.7518C105.977 66.6511 105.817 70.6787 105.828 71.5505L105.4 81.9256L107.706 77.3144L109.291 72.7032C111.597 64.4896 113.182 55.6996 110.444 43.6305C107.706 31.094 101.366 23.1685 98.6277 19.8543C95.8899 16.54 90.4141 11.3525 84.362 7.75001C80.1831 5.44443 70.9608 0.400985 58.5683 0.112599C56.3968 0.133061 50.3547 -0.752016 40.6699 2.12999Z" fill="white" fill-opacity="0.26"/>
<path d="M83.9059 123.637C82.2152 123.637 80.6781 123.252 79.2948 122.484C77.9498 121.715 76.8931 120.659 76.1246 119.314C75.3561 117.93 74.9718 116.393 74.9718 114.703C74.9718 113.05 75.3561 111.571 76.1246 110.264C76.8931 108.958 77.9498 107.94 79.2948 107.21C80.6781 106.441 82.2152 106.057 83.9059 106.057C85.5967 106.057 87.1145 106.441 88.4594 107.21C89.8043 107.94 90.8611 108.958 91.6296 110.264C92.4365 111.571 92.84 113.05 92.84 114.703C92.84 116.393 92.4365 117.93 91.6296 119.314C90.8611 120.659 89.8043 121.715 88.4594 122.484C87.1145 123.252 85.5967 123.637 83.9059 123.637ZM83.9059 120.063C85.4045 120.063 86.615 119.583 87.5372 118.622C88.4594 117.623 88.9205 116.317 88.9205 114.703C88.9205 113.166 88.4594 111.936 87.5372 111.014C86.615 110.091 85.4045 109.63 83.9059 109.63C82.3689 109.63 81.1392 110.091 80.217 111.014C79.3332 111.936 78.8913 113.166 78.8913 114.703C78.8913 116.317 79.3332 117.623 80.217 118.622C81.1392 119.583 82.3689 120.063 83.9059 120.063Z" fill="#5E41D2"/>
<path d="M69.4734 123.636C68.9739 123.636 68.5128 123.483 68.0901 123.175C67.7058 122.868 67.5137 122.426 67.5137 121.85V108.016C67.5137 107.363 67.7058 106.883 68.0901 106.575C68.5128 106.229 68.9739 106.056 69.4734 106.056C69.973 106.056 70.4149 106.229 70.7991 106.575C71.2218 106.883 71.4332 107.363 71.4332 108.016V121.85C71.4332 122.426 71.2218 122.868 70.7991 123.175C70.4149 123.483 69.973 123.636 69.4734 123.636ZM69.5311 102.886C68.801 102.886 68.1669 102.656 67.629 102.195C67.1294 101.695 66.8796 101.099 66.8796 100.408C66.8796 99.7545 67.1294 99.1973 67.629 98.7362C68.1669 98.2366 68.801 97.9869 69.5311 97.9869C70.2227 97.9869 70.8183 98.2366 71.3179 98.7362C71.8174 99.1973 72.0672 99.7545 72.0672 100.408C72.0672 101.099 71.8174 101.695 71.3179 102.195C70.8183 102.656 70.2227 102.886 69.5311 102.886Z" fill="#5E41D2"/>
<path d="M59.4331 123.925C58.703 123.925 58.069 123.675 57.531 123.175C57.0314 122.714 56.7817 122.157 56.7817 121.504C56.7817 120.812 57.0314 120.236 57.531 119.775C58.069 119.275 58.703 119.025 59.4331 119.025C60.1248 119.025 60.7204 119.275 61.2199 119.775C61.7195 120.236 61.9692 120.812 61.9692 121.504C61.9692 122.157 61.7195 122.714 61.2199 123.175C60.7204 123.675 60.1248 123.925 59.4331 123.925Z" fill="#8872DE"/>
<path d="M44.6218 123.637C41.7398 123.637 39.4919 122.811 37.8779 121.158C36.264 119.506 35.4571 117.277 35.4571 114.472C35.4571 112.013 36.264 109.995 37.8779 108.42C39.5303 106.844 41.6437 106.057 44.2183 106.057C46.716 106.057 48.7142 106.787 50.2128 108.247C51.7114 109.669 52.4607 111.436 52.4607 113.55C52.4607 114.395 52.2302 115.029 51.769 115.452C51.3464 115.875 50.7892 116.086 50.0975 116.086H40.0682C39.684 116.086 39.5495 116.297 39.6648 116.72C39.9722 117.796 40.587 118.641 41.5092 119.256C42.4699 119.833 43.5458 120.121 44.737 120.121C45.6208 120.121 46.4662 120.005 47.2732 119.775C48.1185 119.544 48.8486 119.199 49.4635 118.737C49.6556 118.584 49.9054 118.507 50.2128 118.507C50.6355 118.507 51.0197 118.699 51.3656 119.083C51.7114 119.429 51.8843 119.852 51.8843 120.351C51.8843 120.582 51.8459 120.812 51.769 121.043C51.6922 121.274 51.5193 121.504 51.2503 121.735C50.2512 122.465 49.1753 122.964 48.0225 123.233C46.9081 123.502 45.7745 123.637 44.6218 123.637ZM47.9648 113.089C48.1954 113.089 48.3107 112.973 48.3107 112.743C48.3107 111.859 47.9072 111.091 47.1003 110.437C46.3317 109.784 45.3711 109.457 44.2183 109.457C43.2192 109.457 42.2585 109.726 41.3363 110.264C40.4525 110.802 39.9145 111.513 39.7224 112.397C39.7224 112.397 39.7224 112.416 39.7224 112.455C39.684 112.608 39.6648 112.743 39.6648 112.858C39.7032 112.973 39.8761 113.031 40.1835 113.031L47.9648 113.089Z" fill="#8872DE"/>
<path d="M23.632 123.06C22.6714 123.06 21.9028 122.772 21.3264 122.195C20.7501 121.619 20.4619 120.85 20.4619 119.89V101.618C20.4619 100.965 20.6732 100.485 21.0959 100.177C21.557 99.8697 22.0373 99.716 22.5369 99.716C23.0364 99.716 23.4783 99.8697 23.8626 100.177C24.2853 100.485 24.4966 100.965 24.4966 101.618V117.988C24.4966 118.564 24.6119 118.968 24.8424 119.198C25.073 119.39 25.4573 119.486 25.9952 119.486H31.9321C32.5469 119.486 32.9888 119.678 33.2578 120.063C33.5652 120.447 33.7189 120.85 33.7189 121.273C33.7189 121.734 33.5652 122.157 33.2578 122.541C32.9888 122.887 32.5469 123.06 31.9321 123.06H23.632Z" fill="#8872DE"/>
</svg>
