<svg width="20" height="20" viewBox="0 0 14 24" fill="none" xmlns="http://www.w3.org/2000/svg">
<path d="M7.76562 10.6523C8.625 10.8867 9.32812 11.1211 9.875 11.3555C10.4609 11.5898 11.0664 11.9219 11.6914 12.3516C12.3164 12.7422 12.7852 13.25 13.0977 13.875C13.4492 14.5 13.625 15.2422 13.625 16.1016C13.625 17.3125 13.2148 18.3086 12.3945 19.0898C11.6133 19.832 10.5586 20.3203 9.23047 20.5547V23.25H5.48047V20.5547C4.19141 20.2812 3.11719 19.7344 2.25781 18.9141C1.4375 18.0938 0.988281 17.0391 0.910156 15.75H3.66406C3.82031 17.5078 5.05078 18.3867 7.35547 18.3867C8.56641 18.3867 9.42578 18.1719 9.93359 17.7422C10.4805 17.2734 10.7539 16.7461 10.7539 16.1602C10.7539 14.7539 9.50391 13.7383 7.00391 13.1133C3.09766 12.2148 1.14453 10.4961 1.14453 7.95703C1.14453 6.82422 1.55469 5.86719 2.375 5.08594C3.19531 4.26562 4.23047 3.71875 5.48047 3.44531V0.75H9.23047V3.50391C10.5195 3.81641 11.4961 4.40234 12.1602 5.26172C12.8633 6.12109 13.2344 7.11719 13.2734 8.25H10.5195C10.4414 6.49219 9.38672 5.61328 7.35547 5.61328C6.33984 5.61328 5.51953 5.82813 4.89453 6.25781C4.30859 6.6875 4.01562 7.25391 4.01562 7.95703C4.01562 9.08984 5.26562 9.98828 7.76562 10.6523Z" fill="#8872DE"/>
</svg>
