<svg width="22" height="27" viewBox="0 0 22 27" fill="none" xmlns="http://www.w3.org/2000/svg">
<path d="M14.8672 9.13855V6.61902C14.8672 5.56433 14.4766 4.66589 13.6953 3.92371C12.9531 3.14246 12.0547 2.75183 11 2.75183C9.94531 2.75183 9.02734 3.14246 8.24609 3.92371C7.50391 4.66589 7.13281 5.56433 7.13281 6.61902V9.13855H14.8672ZM9.24219 19.6268C9.75 20.1346 10.3359 20.3885 11 20.3885C11.6641 20.3885 12.25 20.1346 12.7578 19.6268C13.2656 19.119 13.5195 18.5331 13.5195 17.869C13.5195 17.205 13.2656 16.619 12.7578 16.1112C12.25 15.6034 11.6641 15.3495 11 15.3495C10.3359 15.3495 9.75 15.6034 9.24219 16.1112C8.73438 16.619 8.48047 17.205 8.48047 17.869C8.48047 18.5331 8.73438 19.119 9.24219 19.6268ZM18.5 9.13855C19.1641 9.13855 19.75 9.39246 20.2578 9.90027C20.7656 10.369 21.0195 10.9354 21.0195 11.5995V24.1385C21.0195 24.8026 20.7656 25.3885 20.2578 25.8964C19.75 26.3651 19.1641 26.5995 18.5 26.5995H3.5C2.83594 26.5995 2.25 26.3651 1.74219 25.8964C1.23438 25.3885 0.980469 24.8026 0.980469 24.1385V11.5995C0.980469 10.9354 1.23438 10.369 1.74219 9.90027C2.25 9.39246 2.83594 9.13855 3.5 9.13855H4.73047V6.61902C4.73047 4.90027 5.33594 3.43542 6.54688 2.22449C7.79688 0.974487 9.28125 0.349487 11 0.349487C12.7188 0.349487 14.1836 0.974487 15.3945 2.22449C16.6445 3.43542 17.2695 4.90027 17.2695 6.61902V9.13855H18.5Z" fill="#8872DE"/>
</svg>
