<svg width="23" height="23" viewBox="0 0 23 23" fill="none" xmlns="http://www.w3.org/2000/svg">
<path d="M4.91016 12.8789C6.00391 13.9727 7.33203 14.5195 8.89453 14.5195C10.457 14.5195 11.7852 13.9727 12.8789 12.8789C13.9727 11.7852 14.5195 10.457 14.5195 8.89453C14.5195 7.33203 13.9727 6.00391 12.8789 4.91016C11.7852 3.81641 10.457 3.26953 8.89453 3.26953C7.33203 3.26953 6.00391 3.81641 4.91016 4.91016C3.81641 6.00391 3.26953 7.33203 3.26953 8.89453C3.26953 10.457 3.81641 11.7852 4.91016 12.8789ZM16.3945 14.5195L22.6055 20.7305L20.7305 22.6055L14.5195 16.3945V15.3984L14.168 15.0469C12.6836 16.3359 10.9258 16.9805 8.89453 16.9805C6.62891 16.9805 4.69531 16.1992 3.09375 14.6367C1.53125 13.0742 0.75 11.1602 0.75 8.89453C0.75 6.62891 1.53125 4.71484 3.09375 3.15234C4.69531 1.55078 6.62891 0.75 8.89453 0.75C11.1602 0.75 13.0742 1.55078 14.6367 3.15234C16.1992 4.71484 16.9805 6.62891 16.9805 8.89453C16.9805 9.71484 16.7852 10.6523 16.3945 11.707C16.0039 12.7227 15.5547 13.543 15.0469 14.168L15.3984 14.5195H16.3945Z" fill="#8872DE"/>
</svg>
