<svg width="24" height="26" viewBox="0 0 24 26" fill="none" xmlns="http://www.w3.org/2000/svg">
<path d="M19.5 18.0977C20.5156 18.0977 21.375 18.4688 22.0781 19.2109C22.7812 19.9141 23.1328 20.7539 23.1328 21.7305C23.1328 22.7461 22.7617 23.625 22.0195 24.3672C21.3164 25.0703 20.4766 25.4219 19.5 25.4219C18.5234 25.4219 17.6641 25.0703 16.9219 24.3672C16.2188 23.625 15.8672 22.7461 15.8672 21.7305C15.8672 21.3398 15.8867 21.0664 15.9258 20.9102L7.07812 15.7539C6.33594 16.418 5.47656 16.75 4.5 16.75C3.48438 16.75 2.60547 16.3789 1.86328 15.6367C1.12109 14.8945 0.75 14.0156 0.75 13C0.75 11.9844 1.12109 11.1055 1.86328 10.3633C2.60547 9.62109 3.48438 9.25 4.5 9.25C5.47656 9.25 6.33594 9.58203 7.07812 10.2461L15.8672 5.14844C15.7891 4.75781 15.75 4.46484 15.75 4.26953C15.75 3.25391 16.1211 2.375 16.8633 1.63281C17.6055 0.890625 18.4844 0.519531 19.5 0.519531C20.5156 0.519531 21.3945 0.890625 22.1367 1.63281C22.8789 2.375 23.25 3.25391 23.25 4.26953C23.25 5.28516 22.8789 6.16406 22.1367 6.90625C21.3945 7.64844 20.5156 8.01953 19.5 8.01953C18.5625 8.01953 17.7031 7.66797 16.9219 6.96484L8.13281 12.1211C8.21094 12.5117 8.25 12.8047 8.25 13C8.25 13.1953 8.21094 13.4883 8.13281 13.8789L17.0391 19.0352C17.7422 18.4102 18.5625 18.0977 19.5 18.0977Z" fill="#8872DE"/>
</svg>
