<svg width="20" height="20" viewBox="0 0 26 25" fill="none" xmlns="http://www.w3.org/2000/svg">
<mask id="path-1-inside-1_342_50" fill="white">
<path d="M13 19.5625L5.26562 24.25L7.31641 15.4609L0.519531 9.54297L9.48438 8.78125L13 0.519531L16.5156 8.78125L25.4805 9.54297L18.6836 15.4609L20.7344 24.25L13 19.5625Z"/>
</mask>
<path d="M13 19.5625L13.5183 18.7073L13 18.3932L12.4817 18.7073L13 19.5625ZM5.26562 24.25L4.29178 24.0228L3.75185 26.3368L5.78393 25.1052L5.26562 24.25ZM7.31641 15.4609L8.29025 15.6882L8.42702 15.102L7.97307 14.7068L7.31641 15.4609ZM0.519531 9.54297L0.434869 8.54656L-1.9181 8.74648L-0.13713 10.2972L0.519531 9.54297ZM9.48438 8.78125L9.56904 9.77766L10.1688 9.7267L10.4045 9.17281L9.48438 8.78125ZM13 0.519531L13.9202 0.127976L13 -2.03439L12.0798 0.127976L13 0.519531ZM16.5156 8.78125L15.5955 9.17281L15.8312 9.7267L16.431 9.77766L16.5156 8.78125ZM25.4805 9.54297L26.1371 10.2972L27.9181 8.74648L25.5651 8.54656L25.4805 9.54297ZM18.6836 15.4609L18.0269 14.7068L17.573 15.102L17.7098 15.6882L18.6836 15.4609ZM20.7344 24.25L20.2161 25.1052L22.2481 26.3368L21.7082 24.0228L20.7344 24.25ZM12.4817 18.7073L4.74732 23.3948L5.78393 25.1052L13.5183 20.4177L12.4817 18.7073ZM6.23947 24.4772L8.29025 15.6882L6.34257 15.2337L4.29178 24.0228L6.23947 24.4772ZM7.97307 14.7068L1.17619 8.78878L-0.13713 10.2972L6.65974 16.2151L7.97307 14.7068ZM0.604194 10.5394L9.56904 9.77766L9.39971 7.78484L0.434869 8.54656L0.604194 10.5394ZM10.4045 9.17281L13.9202 0.911086L12.0798 0.127976L8.56422 8.38969L10.4045 9.17281ZM12.0798 0.911086L15.5955 9.17281L17.4358 8.38969L13.9202 0.127976L12.0798 0.911086ZM16.431 9.77766L25.3958 10.5394L25.5651 8.54656L16.6003 7.78484L16.431 9.77766ZM24.8238 8.78878L18.0269 14.7068L19.3403 16.2151L26.1371 10.2972L24.8238 8.78878ZM17.7098 15.6882L19.7605 24.4772L21.7082 24.0228L19.6574 15.2337L17.7098 15.6882ZM21.2527 23.3948L13.5183 18.7073L12.4817 20.4177L20.2161 25.1052L21.2527 23.3948Z" fill="#8872DE" mask="url(#path-1-inside-1_342_50)"/>
</svg>
