<svg width="52" height="48" viewBox="0 0 52 48" fill="none" xmlns="http://www.w3.org/2000/svg">
<path fill-rule="evenodd" clip-rule="evenodd" d="M34.0819 17.9181L34.0708 17.9067C31.8346 15.5984 29.163 14.4609 26 14.4609C22.8361 14.4609 20.1193 15.5996 17.8009 17.918C15.5673 20.1516 14.4609 22.8266 14.4609 26C14.4609 29.169 15.5647 31.8855 17.801 34.1991C20.1146 36.4354 22.8311 37.5391 26 37.5391C29.1734 37.5391 31.8484 36.4327 34.082 34.1991C36.4004 31.8807 37.5391 29.1639 37.5391 26C37.5391 22.837 36.4016 20.1654 34.0933 17.9292L34.0819 17.9181ZM17.0938 34.9062C14.6719 32.4062 13.4609 29.4375 13.4609 26C13.4609 22.5625 14.6719 19.6328 17.0938 17.2109C19.5938 14.7109 22.5625 13.4609 26 13.4609C29.4375 13.4609 32.3672 14.7109 34.7891 17.2109C37.2891 19.6328 38.5391 22.5625 38.5391 26C38.5391 29.4375 37.2891 32.4062 34.7891 34.9062C32.3672 37.3281 29.4375 38.5391 26 38.5391C22.5625 38.5391 19.5938 37.3281 17.0938 34.9062ZM18.0639 0.0390625H33.9361L38.5064 4.96094H46.0391C47.6523 4.96094 49.0428 5.58967 50.1586 6.79134C51.3359 7.97479 51.9609 9.3901 51.9609 11V41C51.9609 42.6099 51.3359 44.0252 50.1586 45.2087C49.0428 46.4103 47.6523 47.0391 46.0391 47.0391H5.96094C4.34466 47.0391 2.9245 46.409 1.73821 45.2227L1.72407 45.2086L1.71051 45.1939C0.610143 44.0018 0.0390625 42.5906 0.0390625 41V11C0.0390625 9.40943 0.610143 7.99816 1.71051 6.8061L1.72407 6.7914L1.73821 6.77727C2.9245 5.59097 4.34466 4.96094 5.96094 4.96094H13.4936L18.0639 0.0390625ZM13.9297 5.96094H5.96094C4.63281 5.96094 3.46094 6.46875 2.44531 7.48438C1.50781 8.5 1.03906 9.67188 1.03906 11V41C1.03906 42.3281 1.50781 43.5 2.44531 44.5156C3.46094 45.5312 4.63281 46.0391 5.96094 46.0391H46.0391C47.3672 46.0391 48.5 45.5312 49.4375 44.5156C50.4531 43.5 50.9609 42.3281 50.9609 41V11C50.9609 9.67188 50.4531 8.5 49.4375 7.48438C48.5 6.46875 47.3672 5.96094 46.0391 5.96094H38.0703L33.5 1.03906H18.5L13.9297 5.96094ZM19.6679 32.3321C17.92 30.5842 17.0312 28.4557 17.0312 26C17.0312 23.5443 17.92 21.4158 19.6679 19.6679C21.4158 17.92 23.5443 17.0312 26 17.0312C28.4557 17.0312 30.5842 17.92 32.3321 19.6679C34.08 21.4158 34.9688 23.5443 34.9688 26C34.9688 28.4557 34.08 30.5842 32.3321 32.3321C30.5842 34.08 28.4557 34.9688 26 34.9688C23.5443 34.9688 21.4158 34.08 19.6679 32.3321ZM18.0312 26C18.0312 28.1875 18.8125 30.0625 20.375 31.625C21.9375 33.1875 23.8125 33.9688 26 33.9688C28.1875 33.9688 30.0625 33.1875 31.625 31.625C33.1875 30.0625 33.9688 28.1875 33.9688 26C33.9688 23.8125 33.1875 21.9375 31.625 20.375C30.0625 18.8125 28.1875 18.0312 26 18.0312C23.8125 18.0312 21.9375 18.8125 20.375 20.375C18.8125 21.9375 18.0312 23.8125 18.0312 26Z" fill="#8872DE"/>
</svg>
