<svg width="168" height="168" viewBox="0 0 168 168" fill="none" xmlns="http://www.w3.org/2000/svg">
<circle cx="84" cy="84" r="84" fill="white"/>
<path fill-rule="evenodd" clip-rule="evenodd" d="M92.0819 75.9181L92.0708 75.9067C89.8346 73.5984 87.163 72.4609 84 72.4609C80.8361 72.4609 78.1193 73.5996 75.8009 75.918C73.5673 78.1516 72.4609 80.8266 72.4609 84C72.4609 87.169 73.5647 89.8855 75.801 92.1991C78.1146 94.4354 80.8311 95.5391 84 95.5391C87.1734 95.5391 89.8484 94.4327 92.082 92.1991C94.4004 89.8807 95.5391 87.1639 95.5391 84C95.5391 80.837 94.4016 78.1654 92.0933 75.9292L92.0819 75.9181ZM75.0938 92.9062C72.6719 90.4062 71.4609 87.4375 71.4609 84C71.4609 80.5625 72.6719 77.6328 75.0938 75.2109C77.5938 72.7109 80.5625 71.4609 84 71.4609C87.4375 71.4609 90.3672 72.7109 92.7891 75.2109C95.2891 77.6328 96.5391 80.5625 96.5391 84C96.5391 87.4375 95.2891 90.4062 92.7891 92.9062C90.3672 95.3281 87.4375 96.5391 84 96.5391C80.5625 96.5391 77.5938 95.3281 75.0938 92.9062ZM76.0639 58.0391H91.9361L96.5064 62.9609H104.039C105.652 62.9609 107.043 63.5897 108.159 64.7913C109.336 65.9748 109.961 67.3901 109.961 69V99C109.961 100.61 109.336 102.025 108.159 103.209C107.043 104.41 105.652 105.039 104.039 105.039H63.9609C62.3447 105.039 60.9245 104.409 59.7382 103.223L59.7241 103.209L59.7105 103.194C58.6101 102.002 58.0391 100.591 58.0391 99V69C58.0391 67.4094 58.6101 65.9982 59.7105 64.8061L59.7241 64.7914L59.7382 64.7773C60.9245 63.591 62.3447 62.9609 63.9609 62.9609H71.4936L76.0639 58.0391ZM71.9297 63.9609H63.9609C62.6328 63.9609 61.4609 64.4688 60.4453 65.4844C59.5078 66.5 59.0391 67.6719 59.0391 69V99C59.0391 100.328 59.5078 101.5 60.4453 102.516C61.4609 103.531 62.6328 104.039 63.9609 104.039H104.039C105.367 104.039 106.5 103.531 107.438 102.516C108.453 101.5 108.961 100.328 108.961 99V69C108.961 67.6719 108.453 66.5 107.438 65.4844C106.5 64.4688 105.367 63.9609 104.039 63.9609H96.0703L91.5 59.0391H76.5L71.9297 63.9609ZM77.6679 90.3321C75.92 88.5842 75.0312 86.4557 75.0312 84C75.0312 81.5443 75.92 79.4158 77.6679 77.6679C79.4158 75.92 81.5443 75.0312 84 75.0312C86.4557 75.0312 88.5842 75.92 90.3321 77.6679C92.08 79.4158 92.9688 81.5443 92.9688 84C92.9688 86.4557 92.08 88.5842 90.3321 90.3321C88.5842 92.08 86.4557 92.9688 84 92.9688C81.5443 92.9688 79.4158 92.08 77.6679 90.3321ZM76.0312 84C76.0312 86.1875 76.8125 88.0625 78.375 89.625C79.9375 91.1875 81.8125 91.9688 84 91.9688C86.1875 91.9688 88.0625 91.1875 89.625 89.625C91.1875 88.0625 91.9688 86.1875 91.9688 84C91.9688 81.8125 91.1875 79.9375 89.625 78.375C88.0625 76.8125 86.1875 76.0312 84 76.0312C81.8125 76.0312 79.9375 76.8125 78.375 78.375C76.8125 79.9375 76.0312 81.8125 76.0312 84Z" fill="#8872DE"/>
</svg>
