<svg width="22" height="21" viewBox="0 0 22 21" fill="none" xmlns="http://www.w3.org/2000/svg">
<path d="M4.37891 14.0448C6.68359 13.1073 8.89062 12.6385 11 12.6385C13.1094 12.6385 15.2969 13.1073 17.5625 14.0448C19.8672 14.9432 21.0195 16.1346 21.0195 17.619V20.1385H0.980469V17.619C0.980469 16.1346 2.11328 14.9432 4.37891 14.0448ZM14.5156 8.65417C13.5391 9.63074 12.3672 10.119 11 10.119C9.63281 10.119 8.46094 9.63074 7.48438 8.65417C6.50781 7.67761 6.01953 6.50574 6.01953 5.13855C6.01953 3.77136 6.50781 2.59949 7.48438 1.62292C8.46094 0.6073 9.63281 0.0994873 11 0.0994873C12.3672 0.0994873 13.5391 0.6073 14.5156 1.62292C15.4922 2.59949 15.9805 3.77136 15.9805 5.13855C15.9805 6.50574 15.4922 7.67761 14.5156 8.65417Z" fill="#8872DE"/>
</svg>
