<svg width="820" height="694" viewBox="0 0 820 694" fill="none" xmlns="http://www.w3.org/2000/svg">
<path d="M262.754 673.994C189.74 680.538 122.509 632.18 75.686 575.774C30.3552 521.165 -3.99616 452.894 0.375266 382.056C3.31391 334.438 24.2852 288.153 58.1494 254.545C82.4071 230.471 115.481 212.348 149.478 215.856C190.402 220.079 223.588 254.056 264.49 258.478C306.14 262.98 343.794 236.313 379.553 214.489C411.743 194.845 446.825 177.926 484.417 174.932C522.008 171.938 562.639 185.176 584.534 215.878C601.593 239.797 605.993 271.69 625.968 293.233C646.819 315.719 679.355 321.66 708.382 331.55C757.823 348.396 804.928 384.28 816.979 435.103C828.258 482.663 806.489 532.445 775.965 570.621C718.182 642.891 626.501 686.814 533.971 686.559C514.952 686.506 495.507 684.579 478.26 676.565" fill="#F4F3FF"/>
<path d="M677.654 145.352C554.125 146.566 513.693 129.589 500.333 111.778C486.973 93.9669 479.414 71.4498 481.392 49.2738C483.093 30.1937 493.826 10.1701 512.253 4.93727C526.898 0.778431 543.363 7.37101 552.951 19.1964C563.397 32.0782 566.761 50.2925 579.481 60.9332C576.844 38.9431 596.597 16.9975 618.742 17.3163C640.887 17.6352 660 40.1434 656.73 62.0471C664.879 49.4488 680.529 41.1798 695.178 44.4307C709.827 47.6816 720.941 64.2505 715.985 78.4145C737.147 66.062 766.421 69.8177 783.778 87.1108C787.259 90.5787 790.339 94.6201 791.757 99.3237C794.675 109.008 789.803 119.746 782.141 126.35C774.479 132.953 764.518 136.177 754.706 138.631C729.591 144.914 703.48 147.19 677.654 145.352Z" fill="#F4F3FF"/>
<path d="M150.113 157.282C131.376 156.885 112.958 148.286 100.621 134.175C94.2482 126.885 89.3696 117.872 88.8514 108.202C88.3332 98.5309 92.8619 88.2711 101.412 83.7247C113.76 77.1565 128.704 83.9572 140.961 90.696C141.532 82.5466 138.259 74.6895 135.354 67.0561C132.26 58.9311 129.488 50.5205 129.233 41.8308C128.894 30.3242 133.285 18.6361 141.541 10.6129C149.797 2.58979 161.892 -1.48046 173.235 0.492661C186.084 2.72709 196.857 12.3048 202.907 23.8579C208.957 35.4131 210.793 48.7489 210.802 61.7901C215.862 50.6644 225.836 41.5429 237.772 38.9165C249.708 36.2901 263.29 40.9051 270.055 51.0829C276.821 61.2608 275.308 76.5298 265.832 84.2473C273.904 82.0948 282.39 80.7683 290.612 82.2476C298.835 83.7247 306.805 88.3641 310.707 95.7517C314.611 103.139 313.482 113.319 306.995 118.585C313.566 117.339 320.406 117.538 326.893 119.161C331.213 120.242 335.72 122.253 337.746 126.219C339.673 129.988 338.809 134.727 336.506 138.279C334.201 141.829 330.662 144.387 327.045 146.588C312.543 155.408 274.486 161.595 150.113 157.282Z" fill="#F4F3FF"/>
<path d="M723.415 273.063C714.645 272.877 706.026 268.853 700.253 262.249C697.27 258.837 694.987 254.62 694.743 250.094C694.5 245.567 696.621 240.766 700.623 238.638C706.403 235.564 713.394 238.747 719.132 241.9C719.4 238.087 717.867 234.408 716.507 230.836C715.059 227.034 713.761 223.099 713.642 219.031C713.485 213.645 715.538 208.175 719.402 204.422C723.266 200.668 728.926 198.762 734.235 199.685C740.249 200.73 745.289 205.212 748.122 210.62C750.954 216.028 751.811 222.269 751.815 228.372C754.183 223.165 758.851 218.896 764.436 217.667C770.021 216.438 776.379 218.597 779.545 223.36C782.712 228.124 782.004 235.27 777.568 238.882C781.346 237.874 785.316 237.254 789.165 237.945C793.014 238.636 796.743 240.808 798.57 244.265C800.397 247.722 799.868 252.488 796.832 254.95C799.908 254.368 803.108 254.461 806.144 255.22C808.166 255.727 810.276 256.666 811.224 258.522C812.125 260.287 811.722 262.504 810.644 264.165C809.565 265.826 807.909 267.024 806.217 268.053C799.432 272.186 781.621 275.082 723.415 273.063Z" fill="#F4F3FF"/>
<path d="M48.8797 693.893C54.3428 693.893 59.8038 693.893 65.267 693.893C79.9978 693.893 94.7309 693.893 109.462 693.893C131.303 693.893 153.143 693.893 174.984 693.893C201.632 693.893 228.279 693.893 254.926 693.893C284.009 693.893 313.094 693.893 342.177 693.893C371.734 693.893 401.291 693.893 430.85 693.893C458.221 693.893 485.593 693.893 512.966 693.893C536.179 693.893 559.393 693.893 582.606 693.893C599.296 693.893 615.985 693.893 632.675 693.893C640.559 693.893 648.458 694.057 656.342 693.893C656.687 693.886 657.033 693.893 657.376 693.893C659.777 693.893 659.781 689.464 657.376 689.464C651.913 689.464 646.452 689.464 640.989 689.464C626.258 689.464 611.525 689.464 596.794 689.464C574.952 689.464 553.113 689.464 531.271 689.464C504.624 689.464 477.977 689.464 451.33 689.464C422.247 689.464 393.162 689.464 364.079 689.464C334.522 689.464 304.965 689.464 275.406 689.464C248.034 689.464 220.663 689.464 193.29 689.464C170.077 689.464 146.863 689.464 123.65 689.464C106.959 689.464 90.2709 689.464 73.5802 689.464C65.6966 689.464 57.7975 689.3 49.9138 689.464C49.5684 689.471 49.2229 689.464 48.8797 689.464C46.4791 689.464 46.4747 693.893 48.8797 693.893Z" fill="#13084A"/>
<path d="M693.439 693.893C698.818 693.893 704.197 693.893 709.576 693.893C718.142 693.893 726.707 693.893 735.273 693.893C737.229 693.893 739.184 693.893 741.139 693.893C743.21 693.893 743.212 689.464 741.139 689.464C735.76 689.464 730.381 689.464 725.002 689.464C716.437 689.464 707.871 689.464 699.305 689.464C697.35 689.464 695.394 689.464 693.439 689.464C691.368 689.464 691.366 693.893 693.439 693.893Z" fill="#13084A"/>
<g opacity="0.46">
<path d="M439.488 120.525C442.389 120.525 442.394 116.016 439.488 116.016C436.587 116.016 436.583 120.525 439.488 120.525Z" fill="white"/>
</g>
<path d="M279.58 409.065C269.532 403.596 259.966 397.262 250.993 390.167C242.112 383.145 233.812 375.394 226.181 367.032C218.466 358.579 211.442 349.495 205.19 339.911C198.983 330.397 193.535 320.386 188.951 309.993C184.367 299.6 180.638 288.829 177.859 277.814C177.513 276.441 177.181 275.064 176.864 273.684C176.72 273.057 175.773 273.374 175.917 273.996C178.492 285.188 182.035 296.148 186.471 306.74C190.875 317.259 196.148 327.414 202.196 337.079C208.25 346.752 215.084 355.931 222.6 364.514C230.165 373.153 238.43 381.18 247.303 388.471C256.112 395.71 265.524 402.225 275.421 407.887C276.65 408.589 277.885 409.28 279.13 409.956C279.695 410.263 280.144 409.373 279.58 409.065Z" fill="#E4E4F9"/>
<path d="M178.871 281.777C171.855 278.575 164.578 269.121 163.075 259.863C162.661 257.316 162.521 254.601 163.11 251.948C163.699 249.295 165.103 246.704 167.096 245.375C169.156 244.002 171.556 244.144 173.556 245.036C178.638 247.302 181.504 253.948 181.938 260.841C182.372 267.737 180.751 274.892 178.871 281.777Z" fill="#E4E4F9"/>
<path d="M187.658 306.111C180.875 309.781 168.945 309.894 160.65 305.516C158.369 304.311 156.117 302.787 154.354 300.719C152.591 298.651 151.369 295.969 151.511 293.577C151.657 291.106 153.216 289.277 155.131 288.216C160.001 285.525 167.032 287.242 172.796 291.048C178.563 294.857 183.295 300.462 187.658 306.111Z" fill="#E4E4F9"/>
<path d="M186.96 307.193C184.546 299.867 186.544 288.106 192.317 280.716C193.905 278.683 195.803 276.737 198.15 275.366C200.497 273.995 203.352 273.267 205.681 273.829C208.089 274.409 209.614 276.265 210.319 278.34C212.106 283.608 209.176 290.227 204.408 295.228C199.643 300.228 193.291 303.898 186.96 307.193Z" fill="#E4E4F9"/>
<path d="M205.438 339.477C199.293 344.138 187.52 346.067 178.656 343.006C176.218 342.165 173.759 341.002 171.702 339.226C169.645 337.45 168.028 334.988 167.805 332.603C167.572 330.138 168.832 328.092 170.566 326.752C174.969 323.351 182.181 323.975 188.457 326.858C194.733 329.742 200.267 334.558 205.438 339.477Z" fill="#E4E4F9"/>
<path d="M204.913 340.653C201.41 333.782 201.591 321.852 206.171 313.67C207.431 311.417 209.01 309.205 211.12 307.493C213.231 305.781 215.941 304.625 218.329 304.827C220.796 305.035 222.587 306.636 223.599 308.578C226.17 313.512 224.281 320.501 220.333 326.168C216.386 331.837 210.669 336.432 204.913 340.653Z" fill="#E4E4F9"/>
<path d="M229.49 370.488C224.062 375.967 212.677 379.532 203.47 377.745C200.938 377.253 198.341 376.449 196.053 374.979C193.766 373.511 191.819 371.299 191.263 368.969C190.687 366.562 191.649 364.358 193.174 362.788C197.056 358.802 204.282 358.406 210.904 360.379C217.525 362.354 223.679 366.347 229.49 370.488Z" fill="#E4E4F9"/>
<path d="M229.138 371.729C224.704 365.417 223.207 353.581 226.591 344.836C227.521 342.431 228.774 340.017 230.624 338.024C232.473 336.033 234.995 334.507 237.387 334.37C239.858 334.228 241.858 335.561 243.131 337.344C246.369 341.868 245.483 349.052 242.369 355.219C239.258 361.387 234.24 366.739 229.138 371.729Z" fill="#E4E4F9"/>
<path d="M256.376 394.237C253.028 399.412 244.708 404.065 237.214 404.176C235.152 404.207 232.991 404.003 230.96 403.228C228.932 402.455 227.045 401.042 226.228 399.312C225.382 397.523 225.772 395.643 226.711 394.166C229.093 390.412 234.681 388.918 240.181 389.378C245.682 389.834 251.15 391.949 256.376 394.237Z" fill="#E4E4F9"/>
<path d="M256.301 395.265C251.798 391.055 248.689 382.044 249.903 374.648C250.237 372.613 250.82 370.52 251.94 368.66C253.061 366.8 254.781 365.194 256.631 364.694C258.539 364.178 260.322 364.893 261.611 366.078C264.884 369.085 265.369 374.849 263.945 380.182C262.521 385.517 259.476 390.526 256.301 395.265Z" fill="#E4E4F9"/>
<path d="M261.319 613.623C253.427 621.985 242.662 627.322 231.434 629.806C220.207 632.291 208.512 632.05 197.132 630.409C162.486 625.413 129.935 607.068 107.719 580.018C111.581 575.744 117.084 573.363 122.532 571.49C143.178 564.39 165.715 562.866 187.127 567.129C208.541 571.39 228.777 581.424 245.131 595.889C249.724 599.95 258.425 608.217 261.319 613.623Z" fill="#90AEE4"/>
<path d="M118.043 580.966C136.231 584.055 154.08 588.798 171.816 593.812C189.565 598.83 207.248 604.125 225.214 608.321C235.252 610.664 245.375 612.657 255.59 614.061C256.503 614.188 256.786 612.777 255.869 612.651C237.611 610.14 219.684 605.744 201.935 600.856C184.142 595.958 166.481 590.566 148.581 586.05C138.576 583.526 128.496 581.282 118.322 579.555C117.41 579.402 117.129 580.811 118.043 580.966Z" fill="white"/>
<path d="M232.161 608.842C226.822 611.633 221.283 614.042 215.607 616.062C209.934 618.081 204.118 619.716 198.219 620.927C194.88 621.613 191.511 622.165 188.128 622.586C187.215 622.699 187.313 624.134 188.234 624.018C194.308 623.261 200.329 622.081 206.242 620.489C212.144 618.899 217.935 616.897 223.555 614.498C226.748 613.136 229.884 611.644 232.96 610.036C233.306 609.857 233.357 609.336 233.157 609.04C232.923 608.687 232.506 608.661 232.161 608.842Z" fill="white"/>
<path d="M213.085 603.603C210.095 598.629 206.194 594.262 201.849 590.434C197.437 586.547 192.588 583.192 187.629 580.048C184.817 578.265 181.962 576.551 179.106 574.846C178.311 574.37 177.673 575.661 178.464 576.13C183.437 579.1 188.409 582.089 193.143 585.435C197.827 588.746 202.298 592.409 206.149 596.674C208.304 599.059 210.235 601.648 211.891 604.403C212.368 605.198 213.559 604.394 213.085 603.603Z" fill="white"/>
<path d="M181.318 595.265C173.755 598.115 165.83 599.954 157.78 600.706C155.526 600.917 153.265 601.041 151.001 601.085C150.078 601.103 150.184 602.536 151.108 602.518C159.255 602.361 167.375 601.114 175.197 598.826C177.423 598.175 179.619 597.438 181.79 596.621C182.653 596.297 182.186 594.938 181.318 595.265Z" fill="white"/>
<path d="M159.472 588.657C154.184 582.636 147.669 577.761 140.429 574.338C138.392 573.374 136.299 572.535 134.162 571.818C133.285 571.523 132.842 572.89 133.719 573.184C141.085 575.66 147.943 579.653 153.714 584.859C155.366 586.351 156.93 587.939 158.4 589.613C159.011 590.311 160.083 589.352 159.472 588.657Z" fill="white"/>
<path d="M518.803 657.16C515.568 637.267 519.607 616.599 528.109 598.327C536.61 580.055 549.399 564.033 563.804 549.94C607.658 507.036 667.859 481.271 729.174 479.16C731.008 489.088 728.461 499.283 725.268 508.861C713.161 545.161 691.278 578.148 662.538 603.414C633.8 628.679 598.282 646.16 560.731 653.517C550.183 655.585 529.411 658.891 518.803 657.16Z" fill="#E3E1FF"/>
<path d="M716.857 492.523C693.187 514.549 667.576 534.337 641.704 553.686C615.816 573.045 589.612 592.016 564.635 612.556C550.681 624.031 537.126 636.001 524.293 648.721C523.146 649.857 524.805 651.753 525.961 650.61C548.901 627.871 574.113 607.602 599.821 588.101C625.593 568.552 651.906 549.713 677.255 529.61C691.424 518.371 705.284 506.732 718.525 494.41C719.707 493.309 718.047 491.416 716.857 492.523Z" fill="#A4A4ED"/>
<path d="M556.514 621.67C558.317 611.266 560.862 600.993 564.095 590.941C567.328 580.894 571.245 571.057 575.845 561.557C578.449 556.178 581.268 550.903 584.284 545.743C585.099 544.351 582.998 542.96 582.176 544.366C576.759 553.627 571.989 563.267 567.908 573.188C563.836 583.095 560.456 593.287 557.806 603.666C556.3 609.561 555.037 615.518 553.999 621.513C553.884 622.184 554.55 622.808 555.177 622.848C555.919 622.895 556.399 622.343 556.514 621.67Z" fill="#A4A4ED"/>
<path d="M584.124 600.699C594.231 601.837 604.464 601.055 614.421 599.087C624.528 597.087 634.365 593.909 644.02 590.357C649.496 588.342 654.922 586.194 660.341 584.032C661.849 583.43 660.733 581.171 659.236 581.769C649.806 585.529 640.348 589.265 630.651 592.293C621.053 595.287 611.194 597.61 601.156 598.427C595.54 598.883 589.882 598.816 584.282 598.188C582.667 598.002 582.517 600.517 584.124 600.699Z" fill="#A4A4ED"/>
<path d="M629.562 565.365C633.65 551.803 639.532 538.813 647.057 526.808C649.165 523.446 651.399 520.164 653.749 516.969C654.708 515.665 652.6 514.285 651.641 515.591C643.181 527.096 636.268 539.729 631.121 553.05C629.657 556.839 628.342 560.685 627.17 564.574C626.703 566.124 629.093 566.924 629.562 565.365Z" fill="#A4A4ED"/>
<path d="M662.026 541.997C676.038 541.051 689.761 537.174 702.237 530.743C705.747 528.934 709.147 526.914 712.42 524.706C713.764 523.8 712.333 521.725 710.989 522.633C699.699 530.247 686.838 535.542 673.444 538.026C669.607 538.739 665.731 539.222 661.838 539.486C660.217 539.594 660.41 542.105 662.026 541.997Z" fill="#A4A4ED"/>
<path d="M268.868 379.351C265.774 368.336 263.635 357.066 262.455 345.688C261.288 334.427 261.046 323.074 261.711 311.771C262.382 300.346 263.983 288.977 266.485 277.809C268.968 266.726 272.336 255.835 276.581 245.298C280.826 234.762 285.937 224.575 291.888 214.898C292.63 213.691 293.385 212.495 294.151 211.303C294.499 210.763 293.613 210.305 293.267 210.843C287.049 220.498 281.672 230.685 277.181 241.252C272.721 251.747 269.127 262.611 266.425 273.688C263.721 284.774 261.917 296.075 261.015 307.448C260.107 318.895 260.127 330.417 261.095 341.859C262.058 353.222 263.958 364.509 266.811 375.549C267.165 376.919 267.535 378.286 267.918 379.65C268.091 380.268 269.041 379.969 268.868 379.351Z" fill="#FC6681"/>
<path d="M289.751 218.389C287.149 211.13 288.841 199.32 294.421 191.782C295.956 189.709 297.803 187.714 300.115 186.284C302.427 184.853 305.261 184.051 307.604 184.552C310.025 185.07 311.599 186.886 312.356 188.941C314.279 194.163 311.519 200.853 306.884 205.975C302.249 211.099 295.993 214.93 289.751 218.389Z" fill="#FC6681"/>
<path d="M278.457 241.664C271.096 239.368 262.689 230.902 260.036 221.907C259.306 219.433 258.825 216.756 259.078 214.05C259.328 211.344 260.397 208.598 262.209 207.03C264.08 205.411 266.478 205.249 268.576 205.883C273.901 207.492 277.58 213.726 278.875 220.512C280.168 227.297 279.458 234.598 278.457 241.664Z" fill="#FC6681"/>
<path d="M277.195 241.919C280.756 235.079 290.575 228.3 299.898 227.279C302.462 226.998 305.181 226.998 307.799 227.722C310.419 228.446 312.932 229.983 314.155 232.045C315.417 234.173 315.153 236.562 314.159 238.513C311.632 243.469 304.847 245.99 297.94 246.065C291.033 246.145 283.973 244.154 277.195 241.919Z" fill="#FC6681"/>
<path d="M266.968 277.685C259.341 276.538 249.744 269.452 245.751 260.966C244.653 258.632 243.769 256.061 243.605 253.348C243.441 250.635 244.077 247.759 245.629 245.934C247.233 244.047 249.578 243.522 251.746 243.83C257.255 244.61 261.839 250.21 264.156 256.718C266.47 263.225 266.882 270.548 266.968 277.685Z" fill="#FC6681"/>
<path d="M265.759 278.13C268.235 270.827 276.907 262.631 285.964 260.2C288.456 259.531 291.142 259.117 293.841 259.433C296.541 259.75 299.26 260.886 300.782 262.735C302.354 264.646 302.458 267.047 301.771 269.128C300.031 274.412 293.708 277.938 286.894 279.065C280.08 280.194 272.799 279.304 265.759 278.13Z" fill="#FC6681"/>
<path d="M261.543 316.555C253.832 316.49 243.333 310.823 238.186 302.984C236.771 300.827 235.535 298.407 234.991 295.743C234.446 293.081 234.672 290.142 235.952 288.116C237.274 286.023 239.522 285.173 241.712 285.173C247.275 285.171 252.603 290.071 255.809 296.19C259.016 302.306 260.453 309.501 261.543 316.555Z" fill="#FC6681"/>
<path d="M260.406 317.166C261.832 309.585 269.264 300.254 277.89 296.573C280.261 295.561 282.863 294.773 285.581 294.708C288.298 294.644 291.15 295.384 292.917 297.003C294.744 298.675 295.183 301.037 294.797 303.192C293.816 308.669 288.052 313.047 281.464 315.122C274.876 317.197 267.541 317.338 260.406 317.166Z" fill="#FC6681"/>
<path d="M263.294 352.38C257.253 353.594 248.111 350.881 242.801 345.593C241.339 344.138 239.978 342.446 239.116 340.453C238.255 338.46 237.949 336.124 238.618 334.33C239.309 332.476 240.928 331.444 242.642 331.083C246.993 330.171 251.962 333.13 255.472 337.39C258.985 341.651 261.288 347.043 263.294 352.38Z" fill="#FC6681"/>
<path d="M262.508 353.045C262.382 346.884 266.665 338.367 272.81 334.075C274.5 332.895 276.406 331.852 278.521 331.356C280.636 330.86 282.988 330.973 284.635 331.947C286.338 332.955 287.069 334.731 287.12 336.48C287.251 340.925 283.46 345.292 278.645 347.996C273.831 350.7 268.118 352.013 262.508 353.045Z" fill="#FC6681"/>
<path d="M550.527 535.899C553.97 524.99 558.353 514.387 563.594 504.22C568.783 494.16 574.8 484.527 581.545 475.434C588.364 466.241 595.931 457.607 604.137 449.633C612.285 441.718 621.065 434.45 630.388 427.959C639.709 421.469 649.566 415.742 659.843 410.903C661.123 410.301 662.412 409.712 663.705 409.136C664.292 408.875 663.801 408.007 663.218 408.266C652.728 412.938 642.65 418.517 633.105 424.901C623.627 431.241 614.67 438.361 606.343 446.151C598.01 453.946 590.312 462.415 583.328 471.437C576.299 480.518 570.005 490.167 564.551 500.274C559.134 510.308 554.544 520.793 550.885 531.594C550.431 532.933 549.991 534.28 549.565 535.631C549.371 536.242 550.332 536.512 550.527 535.899Z" fill="#BDD4EC"/>
<path d="M656.147 412.658C657.945 405.157 665.829 396.204 674.627 392.953C677.047 392.058 679.685 391.401 682.402 391.469C685.119 391.538 687.932 392.419 689.617 394.122C691.357 395.881 691.681 398.263 691.189 400.398C689.94 405.819 683.965 409.907 677.282 411.654C670.596 413.402 663.264 413.182 656.147 412.658Z" fill="#BDD4EC"/>
<path d="M633.951 425.947C629.048 419.994 626.652 408.306 629.358 399.326C630.102 396.857 631.165 394.355 632.857 392.227C634.549 390.098 636.947 388.387 639.321 388.068C641.775 387.738 643.87 388.916 645.276 390.595C648.85 394.86 648.513 402.088 645.883 408.474C643.252 414.861 638.659 420.581 633.951 425.947Z" fill="#BDD4EC"/>
<path d="M632.753 425.468C639.478 421.695 651.406 421.4 659.765 425.652C662.064 426.821 664.341 428.309 666.134 430.351C667.928 432.393 669.193 435.055 669.086 437.448C668.978 439.922 667.448 441.776 665.548 442.863C660.72 445.627 653.662 444.019 647.84 440.301C642.021 436.58 637.202 431.051 632.753 425.468Z" fill="#BDD4EC"/>
<path d="M604.611 449.792C598.858 444.655 594.708 433.472 596.012 424.184C596.371 421.628 597.042 418.995 598.388 416.635C599.737 414.274 601.845 412.217 604.142 411.539C606.515 410.839 608.765 411.683 610.413 413.127C614.596 416.796 615.365 423.993 613.737 430.706C612.114 437.42 608.447 443.773 604.611 449.792Z" fill="#BDD4EC"/>
<path d="M603.355 449.504C609.428 444.75 621.171 442.641 630.08 445.567C632.531 446.371 635.005 447.496 637.091 449.241C639.175 450.983 640.829 453.424 641.09 455.804C641.361 458.265 640.132 460.331 638.418 461.695C634.066 465.163 626.847 464.649 620.527 461.861C614.209 459.073 608.602 454.343 603.355 449.504Z" fill="#BDD4EC"/>
<path d="M578.786 479.345C572.368 475.069 566.688 464.576 566.675 455.198C566.672 452.618 566.965 449.916 567.966 447.39C568.969 444.863 570.767 442.529 572.946 441.535C575.198 440.507 577.546 441.027 579.377 442.225C584.034 445.27 585.808 452.288 585.139 459.162C584.473 466.04 581.735 472.845 578.786 479.345Z" fill="#BDD4EC"/>
<path d="M577.501 479.235C582.844 473.674 594.174 469.936 603.406 471.579C605.946 472.031 608.555 472.797 610.862 474.23C613.172 475.663 615.152 477.846 615.745 480.167C616.359 482.565 615.431 484.782 613.927 486.374C610.107 490.42 602.888 490.925 596.238 489.054C589.59 487.185 583.376 483.287 577.501 479.235Z" fill="#BDD4EC"/>
<path d="M560.631 510.281C554.911 507.986 548.748 500.712 547.202 493.379C546.777 491.362 546.562 489.201 546.934 487.062C547.306 484.922 548.33 482.801 549.871 481.667C551.465 480.495 553.385 480.518 555.015 481.153C559.156 482.772 561.694 487.969 562.296 493.457C562.901 498.945 561.874 504.716 560.631 510.281Z" fill="#BDD4EC"/>
<path d="M559.608 510.405C562.877 505.181 571.126 500.4 578.615 500.174C580.674 500.112 582.84 500.283 584.882 501.027C586.924 501.769 588.828 503.153 589.674 504.871C590.547 506.647 590.186 508.532 589.271 510.024C586.946 513.813 581.381 515.392 575.876 515.018C570.368 514.644 564.867 512.613 559.608 510.405Z" fill="#BDD4EC"/>
<path d="M216.63 536.724C205.436 539.08 194.047 540.466 182.615 540.889C171.301 541.307 159.956 540.794 148.725 539.381C137.369 537.953 126.132 535.601 115.155 532.363C104.26 529.15 93.6166 525.069 83.3856 520.132C73.1547 515.199 63.3289 509.421 54.0679 502.842C52.9141 502.022 51.7692 501.19 50.631 500.344C50.115 499.961 49.599 500.815 50.1106 501.196C59.3317 508.041 69.1375 514.082 79.3863 519.264C89.5619 524.411 100.163 528.718 111.038 532.148C121.92 535.581 133.077 538.132 144.364 539.786C155.727 541.451 167.222 542.198 178.704 541.99C190.105 541.784 201.494 540.636 212.699 538.522C214.09 538.26 215.478 537.981 216.865 537.689C217.494 537.561 217.259 536.591 216.63 536.724Z" fill="#BDD4EC"/>
<path d="M57.4098 505.204C49.9934 507.319 38.323 504.845 31.1724 498.778C29.2059 497.108 27.3368 495.133 26.0635 492.732C24.7902 490.332 24.1767 487.448 24.8345 485.145C25.5121 482.765 27.4298 481.314 29.5292 480.696C34.8661 479.124 41.3591 482.322 46.1623 487.287C50.9656 492.249 54.3737 498.744 57.4098 505.204Z" fill="#BDD4EC"/>
<path d="M79.8823 518.017C77.1009 525.21 68.0968 533.036 58.9442 535.087C56.4263 535.651 53.7247 535.953 51.0407 535.523C48.3567 535.093 45.6882 533.844 44.2444 531.933C42.7518 529.958 42.7496 527.555 43.5224 525.505C45.4823 520.298 51.9464 517.041 58.8025 516.199C65.6608 515.356 72.9 516.549 79.8823 518.017Z" fill="#BDD4EC"/>
<path d="M80.0555 519.295C73.4674 515.287 67.3553 505.04 66.9545 495.671C66.8438 493.093 67.0254 490.38 67.9223 487.816C68.8191 485.249 70.5199 482.844 72.6569 481.762C74.8647 480.641 77.2298 481.064 79.1121 482.187C83.891 485.037 85.9549 491.975 85.5718 498.871C85.1887 505.767 82.7351 512.68 80.0555 519.295Z" fill="#BDD4EC"/>
<path d="M115.062 531.871C113.41 539.404 105.704 548.51 96.9718 551.932C94.5691 552.873 91.9449 553.584 89.2277 553.566C86.5105 553.551 83.6826 552.725 81.9641 551.055C80.1881 549.33 79.8205 546.956 80.27 544.812C81.4127 539.367 87.3055 535.164 93.9534 533.286C100.599 531.41 107.936 531.485 115.062 531.871Z" fill="#BDD4EC"/>
<path d="M115.425 533.106C108.303 530.15 100.701 520.955 98.8763 511.756C98.3736 509.225 98.1388 506.517 98.6349 503.846C99.1309 501.173 100.444 498.536 102.391 497.138C104.401 495.694 106.804 495.752 108.835 496.574C113.992 498.662 117.088 505.203 117.764 512.077C118.437 518.953 117.066 526.161 115.425 533.106Z" fill="#BDD4EC"/>
<path d="M153.486 539.865C152.91 547.556 146.559 557.657 138.394 562.269C136.149 563.538 133.651 564.61 130.958 564.978C128.265 565.343 125.349 564.922 123.413 563.512C121.413 562.052 120.714 559.754 120.858 557.568C121.225 552.016 126.467 547.027 132.785 544.232C139.103 541.44 146.375 540.485 153.486 539.865Z" fill="#BDD4EC"/>
<path d="M154.02 541.039C146.552 539.112 137.734 531.078 134.634 522.227C133.781 519.793 133.168 517.144 133.283 514.427C133.398 511.712 134.328 508.915 136.058 507.259C137.847 505.547 140.232 505.266 142.358 505.795C147.757 507.137 151.743 513.178 153.375 519.89C155.012 526.603 154.666 533.93 154.02 541.039Z" fill="#BDD4EC"/>
<path d="M189.35 540.494C190.16 546.603 186.847 555.543 181.218 560.491C179.67 561.85 177.892 563.099 175.846 563.828C173.799 564.556 171.45 564.705 169.705 563.919C167.902 563.106 166.979 561.421 166.733 559.689C166.111 555.287 169.393 550.525 173.877 547.306C178.359 544.083 183.891 542.143 189.35 540.494Z" fill="#BDD4EC"/>
<path d="M189.961 541.322C183.805 541.039 175.591 536.2 171.716 529.784C170.65 528.019 169.736 526.049 169.382 523.907C169.027 521.766 169.295 519.425 170.378 517.846C171.496 516.214 173.317 515.603 175.066 515.669C179.508 515.835 183.616 519.908 185.993 524.888C188.371 529.871 189.303 535.657 189.961 541.322Z" fill="#BDD4EC"/>
<path d="M272.01 574.477C249.704 577.033 226.914 571.452 207.026 561.033C187.137 550.614 169.979 535.54 155.051 518.769C109.608 467.714 84.0943 399.368 84.9646 331.022C96.1102 329.502 107.322 332.871 117.812 336.928C157.574 352.305 193.134 378.392 219.744 411.7C246.353 445.009 263.941 485.452 270.159 527.627C271.902 539.475 274.493 562.765 272.01 574.477Z" fill="#E3E1FF"/>
<path d="M99.1863 345.431C122.456 372.929 143.133 402.47 163.307 432.275C183.492 462.1 203.228 492.257 224.777 521.132C236.815 537.263 249.425 552.974 262.907 567.925C264.111 569.26 266.308 567.513 265.097 566.168C240.996 539.446 219.764 510.325 199.412 480.693C179.01 450.988 159.427 420.716 138.385 391.451C126.624 375.092 114.398 359.059 101.381 343.675C100.212 342.3 98.017 344.049 99.1863 345.431Z" fill="#A4A4ED"/>
<path d="M234.495 530.648C223.012 528.094 211.712 524.726 200.697 520.598C189.686 516.473 178.944 511.596 168.613 505.98C162.763 502.8 157.042 499.386 151.457 495.758C149.949 494.779 148.293 497.045 149.812 498.033C159.833 504.545 170.31 510.363 181.138 515.423C191.95 520.476 203.115 524.77 214.527 528.265C221.008 530.249 227.57 531.968 234.187 533.438C234.926 533.602 235.657 532.893 235.735 532.198C235.826 531.374 235.237 530.812 234.495 530.648Z" fill="#A4A4ED"/>
<path d="M212.602 498.821C214.4 487.633 214.068 476.204 212.398 465.021C210.704 453.67 207.683 442.555 204.237 431.622C202.282 425.424 200.178 419.272 198.057 413.126C197.466 411.417 194.892 412.54 195.479 414.236C199.171 424.928 202.831 435.648 205.688 446.599C208.516 457.436 210.584 468.531 210.965 479.745C211.178 486.019 210.808 492.313 209.811 498.511C209.526 500.3 212.316 500.601 212.602 498.821Z" fill="#A4A4ED"/>
<path d="M175.667 446.402C160.787 441.14 146.641 433.912 133.677 424.91C130.046 422.388 126.513 419.728 123.079 416.944C121.677 415.808 120.032 418.083 121.433 419.219C133.793 429.237 147.489 437.592 162.043 444.019C166.184 445.848 170.394 447.513 174.661 449.021C176.362 449.624 177.376 447.006 175.667 446.402Z" fill="#A4A4ED"/>
<path d="M151.367 409.046C151.048 393.405 147.456 377.927 140.952 363.706C139.123 359.704 137.054 355.816 134.769 352.058C133.83 350.514 131.449 351.998 132.386 353.541C140.268 366.505 145.483 381.096 147.547 396.133C148.138 400.44 148.472 404.781 148.561 409.125C148.596 410.935 151.402 410.853 151.367 409.046Z" fill="#A4A4ED"/>
<path d="M232.453 683.502C218.666 683.502 207.487 672.323 207.487 658.536C207.487 644.748 218.666 633.57 232.453 633.57H539.968C541.753 633.57 543.199 632.123 543.199 630.339V630.235C543.199 628.527 541.815 627.143 540.107 627.143H228.004C210.395 627.143 196.118 641.42 196.118 659.03C196.118 676.639 210.395 690.916 228.004 690.916H539.45C541.52 690.916 543.199 689.238 543.199 687.167V686.985C543.199 685.061 541.638 683.5 539.713 683.5L232.453 683.502Z" fill="#766CFF"/>
<path d="M207.487 658.536C207.487 672.324 218.555 683.503 232.207 683.503H539.903L539.461 681.782C535.536 666.535 535.536 650.54 539.461 635.293L539.903 633.572H232.207C218.555 633.57 207.487 644.749 207.487 658.536Z" fill="#EDEDF9"/>
<path d="M214.739 663.478C214.739 649.69 225.807 638.511 239.46 638.511H538.739C538.976 637.437 539.186 636.357 539.461 635.289L539.903 633.569H232.207C218.555 633.569 207.487 644.745 207.487 658.535C207.487 668.737 213.555 677.496 222.235 681.369C217.618 676.833 214.739 670.5 214.739 663.478Z" fill="#DCDCEF"/>
<path d="M435.098 652.592H300.627V654.425H435.098V652.592Z" fill="#DCDCEF"/>
<path d="M519.614 670.132H385.143V671.966H519.614V670.132Z" fill="#DCDCEF"/>
<path d="M349.678 653.734V682.388L362.703 671.765L375.523 682.029L374.037 653.628L349.678 653.734Z" fill="#FC6681"/>
<path d="M560.472 627.144H261.501C249.998 627.144 240.675 617.819 240.675 606.317V600.871C240.675 589.369 250.001 580.046 261.501 580.046H560.472C571.974 580.046 581.297 589.369 581.297 600.871V606.317C581.297 617.819 571.974 627.144 560.472 627.144Z" fill="#06005A"/>
<path opacity="0.43" d="M534.332 580.046H528.729V627.144H534.332V580.046Z" fill="white"/>
<path opacity="0.43" d="M509.529 580.046H503.927V627.144H509.529V580.046Z" fill="white"/>
<path d="M240.673 593.198V599.895L507.388 580.046H256.804C247.895 580.046 240.673 588.337 240.673 593.198Z" fill="#000033"/>
<path opacity="0.43" d="M287.145 580.046H281.542V627.144H287.145V580.046Z" fill="white"/>
<path opacity="0.43" d="M310.875 580.046H305.273V627.144H310.875V580.046Z" fill="white"/>
<path d="M258.994 547.662C258.994 561.452 269.309 572.628 282.034 572.628H568.821L568.407 570.908C564.748 555.661 564.748 539.666 568.407 524.419L568.821 522.698H282.034C269.309 522.696 258.994 533.875 258.994 547.662Z" fill="#EDEDF9"/>
<path d="M282.262 572.628C269.411 572.628 258.992 561.452 258.992 547.662C258.992 533.875 269.409 522.696 282.262 522.696H568.881C570.544 522.696 571.892 521.25 571.892 519.465V519.363C571.892 517.656 570.601 516.271 569.009 516.271H278.116C261.703 516.271 248.396 530.548 248.396 548.158C248.396 565.77 261.703 580.045 278.116 580.045H568.398C570.327 580.045 571.892 578.366 571.892 576.296V576.116C571.892 574.19 570.437 572.631 568.644 572.631H282.262V572.628Z" fill="#766CFF"/>
<path d="M265.75 552.607C265.75 538.82 276.066 527.641 288.792 527.641H567.735C567.957 526.567 568.152 525.486 568.409 524.419L568.823 522.698H282.034C269.309 522.698 258.992 533.877 258.992 547.664C258.992 557.866 264.645 566.625 272.739 570.498C268.434 565.96 265.75 559.627 265.75 552.607Z" fill="#DCDCEF"/>
<path d="M436.894 541.774H302.422V543.608H436.894V541.774Z" fill="#DCDCEF"/>
<path d="M521.41 559.315H386.939V561.148H521.41V559.315Z" fill="#DCDCEF"/>
<path d="M501.807 383.012C513.801 383.012 523.523 373.29 523.523 361.296C523.523 349.303 513.801 339.581 501.807 339.581H234.324C232.772 339.581 231.514 338.323 231.514 336.771V336.682C231.514 335.196 232.719 333.991 234.205 333.991H505.678C520.996 333.991 533.415 346.41 533.415 361.728C533.415 377.046 520.996 389.465 505.678 389.465H234.776C232.976 389.465 231.516 388.005 231.516 386.203V386.046C231.516 384.371 232.874 383.014 234.548 383.014H501.807V383.012Z" fill="#FC6681"/>
<path d="M523.523 361.296C523.523 373.29 513.896 383.012 502.02 383.012H234.382L234.767 381.515C238.182 368.252 238.182 354.341 234.767 341.078L234.382 339.581H502.022C513.896 339.579 523.523 349.303 523.523 361.296Z" fill="#EDEDF9"/>
<path d="M517.216 365.594C517.216 353.6 507.589 343.878 495.713 343.878H235.394C235.188 342.944 235.006 342.005 234.767 341.075L234.382 339.578H502.022C513.899 339.578 523.525 349.3 523.525 361.293C523.525 370.167 518.248 377.787 510.696 381.155C514.711 377.211 517.216 371.701 517.216 365.594Z" fill="#DCDCEF"/>
<path d="M442.51 356.126H325.545V357.721H442.51V356.126Z" fill="#DCDCEF"/>
<path d="M475.221 370.587H358.255V372.181H475.221V370.587Z" fill="#DCDCEF"/>
<path d="M543.102 516.163H244.131C232.629 516.163 223.306 506.838 223.306 495.336V474.223C223.306 462.721 232.629 453.396 244.131 453.396H543.102C554.604 453.396 563.929 462.721 563.929 474.223V495.336C563.927 506.838 554.604 516.163 543.102 516.163Z" fill="#FC6681"/>
<path opacity="0.43" d="M516.961 453.397H511.359V516.163H516.961V453.397Z" fill="white"/>
<path opacity="0.43" d="M492.159 453.397H486.556V516.163H492.159V453.397Z" fill="white"/>
<path d="M223.303 469.529V479.85L490.017 453.398H239.433C230.524 453.398 223.303 460.62 223.303 469.529Z" fill="#EA496C"/>
<path opacity="0.43" d="M269.774 453.397H264.171V516.163H269.774V453.397Z" fill="white"/>
<path opacity="0.43" d="M293.505 453.397H287.902V516.163H293.505V453.397Z" fill="white"/>
<path d="M236.023 445.82C224.782 445.82 215.669 434.643 215.669 420.854C215.669 407.066 224.782 395.887 236.023 395.887H486.724C488.179 395.887 489.359 394.441 489.359 392.656V392.555C489.359 390.847 488.23 389.463 486.839 389.463H232.395C218.039 389.463 206.399 403.74 206.399 421.35C206.399 438.959 218.039 453.236 232.395 453.236H486.301C487.989 453.236 489.357 451.558 489.357 449.487V449.308C489.357 447.381 488.084 445.822 486.514 445.822H236.023V445.82Z" fill="#766CFF"/>
<path d="M215.672 420.856C215.672 434.644 224.694 445.822 235.826 445.822H486.674L486.313 444.102C483.113 428.855 483.113 412.862 486.313 397.613L486.674 395.892H235.824C224.694 395.89 215.672 407.066 215.672 420.856Z" fill="#EDEDF9"/>
<path d="M221.582 425.799C221.582 412.011 230.604 400.833 241.736 400.833H485.724C485.916 399.759 486.089 398.678 486.313 397.611L486.674 395.89H235.824C224.694 395.89 215.669 407.066 215.669 420.856C215.669 431.058 220.617 439.817 227.694 443.69C223.93 439.152 221.582 432.819 221.582 425.799Z" fill="#DCDCEF"/>
<path d="M401.229 414.911H291.603V416.745H401.229V414.911Z" fill="#DCDCEF"/>
<path d="M470.131 432.454H360.504V434.287H470.131V432.454Z" fill="#DCDCEF"/>
<path d="M390.693 433.473V462.129L401.313 451.504L411.764 461.77L410.552 433.367L390.693 433.473Z" fill="#06005A"/>
<path d="M452.656 86.6611C450.511 98.1101 444.314 108.757 435.421 116.278C435.109 116.541 434.772 116.838 434.715 117.243C434.657 117.642 434.894 118.023 435.16 118.328C436.231 119.562 437.848 120.153 439.409 120.636C445.287 122.45 451.436 123.386 457.586 123.404C458.733 123.406 459.984 123.342 460.852 122.591C461.486 122.044 461.8 121.225 462.086 120.439C464.376 114.134 466.254 107.681 467.706 101.133C467.773 100.836 467.837 100.528 467.777 100.232C467.655 99.6425 467.093 99.2683 466.586 98.9472C462.77 96.5356 459.362 93.4818 456.547 89.9541" fill="#FF948C"/>
<path d="M467.775 100.227C467.653 99.6379 467.091 99.2636 466.584 98.9425C462.768 96.5309 459.36 93.4772 456.545 89.9495L452.659 86.6587C452.468 87.6818 452.205 88.6894 451.95 89.697C452.324 90.6847 452.561 91.7853 452.61 93.0099C452.798 97.5961 457.497 102.391 459.256 106.629C461.603 112.289 461.625 117.735 459.796 123.136C460.179 123.014 460.545 122.855 460.852 122.589C461.486 122.042 461.8 121.223 462.086 120.436C464.376 114.132 466.254 107.679 467.706 101.13C467.771 100.834 467.835 100.526 467.775 100.227Z" fill="#EF7E7B"/>
<path d="M499.052 117.32C496.807 112.446 496.557 106.686 498.37 101.635C499.323 98.982 500.824 96.4929 501.265 93.7093C501.909 89.6324 500.186 85.5688 498.191 81.9547C496.196 78.3429 493.846 74.8041 493.056 70.7538C492.01 65.3947 494.052 59.544 498.202 55.9985L502.943 58.4877C500.966 64.2741 501.453 70.8601 504.261 76.2922C505.789 79.2486 507.984 81.9193 508.798 85.1436C510.18 90.6068 507.317 96.163 504.436 101.006C501.555 105.849 498.435 111.16 499.274 116.733" fill="#06005A"/>
<path d="M478.841 29.3093C485.65 29.9471 492.13 33.559 496.253 39.0177C500.377 44.4765 502.078 51.6957 500.829 58.4212C500.2 61.8116 498.864 65.047 498.348 68.4551C497.832 71.8632 498.293 75.6943 500.738 78.128C501.661 79.047 502.423 79.6937 503.262 80.6902C504.102 81.6845 504.624 82.4751 503.88 83.5425C502.904 84.942 501.017 85.3938 499.633 86.3903C498.867 86.9417 498.437 87.832 498.023 88.6823C494.48 95.9525 489.989 102.76 484.698 108.879C484.415 109.209 484.109 109.547 483.702 109.698C483.079 109.928 482.395 109.669 481.784 109.41C474.981 106.54 468.127 103.646 461.995 99.5334C455.863 95.4211 450.422 89.9623 447.514 83.1771C444.775 76.7861 444.45 69.394 446.618 62.786" fill="#FF948C"/>
<path d="M496.357 71.1242C496.357 72.1961 495.744 73.0664 494.989 73.0664C494.234 73.0664 493.62 72.1961 493.62 71.1242C493.62 70.0524 494.231 69.1821 494.989 69.1821C495.746 69.1843 496.357 70.0524 496.357 71.1242Z" fill="#06005A"/>
<path opacity="0.51" d="M492.783 83.0905C492.783 86.235 490.234 88.7817 487.092 88.7817C483.947 88.7817 481.401 86.2328 481.401 83.0905C481.401 79.9459 483.95 77.3992 487.092 77.3992C490.237 77.397 492.783 79.9459 492.783 83.0905Z" fill="#F96662"/>
<path d="M495.739 92.6578L489.007 91.2671C489.007 91.2671 492.023 94.4626 493.644 94.9166C495.265 95.3706 495.739 92.6578 495.739 92.6578Z" fill="#F96662"/>
<path d="M440.62 41.8479C431.06 43.9826 422.791 41.5865 419.443 40.1582C416.095 38.7276 413.037 36.3515 411.404 33.0962C409.786 29.863 409.701 26.0319 410.459 22.4953C412.556 12.7205 421.352 4.76603 431.288 3.66099C437 3.02543 443.039 4.59107 447.355 8.38451C451.671 12.178 454.023 18.2723 452.82 23.8927" fill="#06005A"/>
<path d="M504.434 34.3894C500.722 29.6968 488.815 19.0207 472.345 18.6044C462.553 17.9998 454.764 19.0118 448.026 23.1065C441.287 27.2033 437.602 33.116 433.585 39.9012C428.782 48.0152 425.75 53.3211 426.076 62.7438C426.401 72.1665 430.684 80.7987 438.074 86.656C440.056 88.2261 445.213 92.3805 447.727 92.664C450.851 93.0161 450.803 93.7247 453.13 91.6099C455.458 89.495 457.041 86.6759 458.215 83.7594C459.508 80.5462 460.666 76.786 463.806 75.32C466.386 74.1153 469.19 74.9413 472.042 75.6898C472.024 76.3741 472.02 77.0606 472.082 77.7449C472.529 82.7253 474.919 87.2827 476.874 91.8845C478.827 96.4862 480.395 101.599 479.111 106.434C478.234 109.736 476.114 112.546 474.635 115.624C471.818 121.486 471.402 128.457 473.499 134.611L473.838 133.933C473.521 127.113 477.944 121.103 482.021 115.626C486.097 110.15 490.241 103.81 489.258 97.0531C488.677 93.0648 486.365 89.5725 484.895 85.8189C483.522 82.3156 482.913 78.531 483.048 74.773C483.502 74.5538 483.956 74.3323 484.399 74.1042C491.97 70.2089 499.477 65.4632 504.099 58.3104C508.723 51.162 509.717 41.0705 504.434 34.3894Z" fill="#06005A"/>
<path d="M431.568 46.6135C431.568 46.6135 428.656 46.6113 433.587 39.9058C438.519 33.2002 451.948 19.787 451.948 19.787C451.948 19.787 454.138 18.4627 450.256 26.8469C446.372 35.2287 437.325 42.995 431.568 46.6135Z" fill="#FC6681"/>
<path d="M452.564 20.0356C452.564 20.0356 454.428 19.1808 457.25 23.1094C460.071 27.0379 463.731 36.1107 463.731 36.1107C463.731 36.1107 464.07 37.559 460.135 33.9095C456.198 30.2578 453.529 23.8667 452.564 20.0356Z" fill="#FC6681"/>
<path d="M452.564 20.5599C452.564 20.5599 452.606 18.7839 456.415 17.3113C460.224 15.8364 468.036 14.8354 468.036 14.8354C468.036 14.8354 469.223 14.8642 465.279 17.309C461.333 19.7539 455.728 20.5799 452.564 20.5599Z" fill="#FC6681"/>
<path d="M455.269 20.4027C455.269 21.8974 454.058 23.1088 452.563 23.1088C451.069 23.1088 449.857 21.8974 449.857 20.4027C449.857 18.9079 451.069 17.6965 452.563 17.6965C454.058 17.6965 455.269 18.9079 455.269 20.4027Z" fill="#FC6681"/>
<path d="M467.939 75.0096C469.057 77.6847 469.121 84.4278 466.295 85.0833C464.444 85.513 462.455 84.8331 460.985 83.6284C459.515 82.4215 458.503 80.7451 457.727 79.009C456.738 76.7878 456.084 74.2876 456.676 71.9292C457.267 69.5707 459.41 67.4781 461.838 67.622C463.543 67.7217 465.046 68.8732 466.003 70.2905C466.958 71.7033 467.456 73.3708 467.939 75.0096Z" fill="#FF948C"/>
<path d="M467.148 81.4717C459.924 81.4717 456.837 75.074 457.863 69.582C457.307 70.2707 456.888 71.079 456.676 71.9272C456.084 74.2856 456.738 76.788 457.728 79.0069C458.503 80.7431 459.515 82.4217 460.985 83.6264C462.456 84.8311 464.444 85.5131 466.295 85.0813C467.575 84.7846 468.258 83.2322 468.523 81.3765C468.08 81.4341 467.626 81.4717 467.148 81.4717Z" fill="#EF7E7B"/>
<path d="M566.965 426.744C568.087 436.716 570.362 447.438 561.497 462.999C560.509 464.733 559.05 466.308 558.857 468.294C558.512 471.851 561.882 474.721 565.268 475.861C568.654 477.002 572.381 477.135 575.559 478.769C579.388 480.738 581.837 484.562 584.887 487.603C588.935 491.635 594.25 494.379 599.881 495.342C600.532 495.453 601.398 495.424 601.613 494.798C601.715 494.501 601.615 494.175 601.498 493.885C600.067 490.293 596.36 488.216 593.917 485.222C591.517 482.281 590.394 478.525 588.545 475.21C587.035 472.5 584.557 467.417 583.376 464.55C581.474 459.926 582.278 454.974 583.336 450.089C584.395 445.202 586.824 433.42 588.72 428.292" fill="#FF948C"/>
<path d="M445.619 269.438C473.152 260.372 502.308 256.258 531.274 257.352C552.77 258.164 576.118 262.906 589.799 279.503C599.655 291.462 600.732 297.168 601.651 312.637C602.488 326.685 600.623 350.144 599.394 364.164C597.304 387.983 596.779 412.717 591.444 436.022C591.267 436.795 591.068 437.608 590.529 438.19C589.971 438.792 589.141 439.049 588.346 439.26C581.727 441.009 574.702 441.213 567.995 439.844C567.027 439.647 566.008 439.386 565.331 438.668C564.611 437.909 564.427 436.802 564.29 435.765C562.1 419.258 560.242 393.561 558.831 376.968C557.695 363.592 557.897 359.283 553.505 346.598C552.329 343.203 550.981 339.749 548.505 337.145C543.458 331.836 535.236 331.42 527.921 331.801C503.158 333.092 478.139 339.417 453.879 334.294" fill="#00001E"/>
<path d="M535.023 331.347C533.38 341.246 528.027 350.483 520.259 356.834C518.713 358.096 517.001 359.348 516.273 361.206C514.968 364.532 517.426 368.214 520.374 370.236C523.321 372.258 526.869 373.403 529.478 375.843C532.624 378.784 533.933 383.131 536.037 386.889C538.829 391.874 543.192 395.967 548.347 398.431C548.943 398.717 549.785 398.923 550.161 398.38C550.34 398.124 550.332 397.783 550.301 397.472C549.904 393.626 546.908 390.616 545.373 387.067C543.867 383.581 543.814 379.661 542.94 375.967C542.227 372.947 541.23 367.382 540.88 364.299C540.313 359.332 541.91 357.073 544.262 352.66C546.616 348.249 552.903 340.533 556.127 336.117" fill="#FF948C"/>
<path d="M393.372 285.437C392.181 297.085 391.84 310.573 398.8 320.229C409.018 334.406 429.531 336.984 446.983 337.856C464.436 338.729 481.919 337.187 497.031 328.409C512.143 319.633 525.257 307.819 537.654 295.502C555.695 277.575 572.468 258.413 588.778 238.899C562.257 265.021 537.259 294.95 528.397 331.106C528.215 331.853 528.04 332.645 528.277 333.376C528.61 334.399 529.635 335.004 530.58 335.513C537.959 339.504 545.338 343.494 552.717 347.483C553.731 348.032 554.831 348.596 555.976 348.457C557.358 348.289 558.392 347.155 559.289 346.09C571.23 331.888 581.895 316.663 592.206 301.239C607.147 278.886 621.805 254.81 623.618 227.984C624.079 221.156 623.439 213.649 618.793 208.624C613.651 203.064 605.256 202.229 597.682 202.289C566.754 202.539 533.473 222.058 505.836 235.936C478.196 249.816 446.035 286.83 426.339 245.19" fill="#080866"/>
<path d="M619.069 153.3L657.338 103.788C658.339 102.493 660.412 103.104 660.549 104.736L663.667 141.811L640.222 178.554L619.069 153.3Z" fill="#FC6681"/>
<path d="M601.006 163.133L653.928 102.08L662.401 140.931L601.006 163.133Z" fill="#ECEBF2"/>
<path d="M595.115 163.133L622.575 113.181L663.667 141.808L595.115 163.133Z" fill="white"/>
<path d="M570.62 185.111C577.556 173.879 601.38 136.157 607.939 125.776C608.927 124.212 610.858 123.539 612.605 124.144L663.667 141.809L625.473 201.664C624.907 202.55 623.833 202.969 622.816 202.699L572.255 189.199C570.476 188.725 569.655 186.677 570.62 185.111Z" fill="#FC6681"/>
<path d="M662.525 141.414C661.969 143.57 660.576 145.583 658.096 147.045C651.43 150.971 646.731 158.217 640.619 163.051C634.343 168.014 627.571 172.7 620.513 176.485C606.25 184.136 588.208 188.261 572.104 189.138C572.157 189.156 572.202 189.185 572.255 189.198L622.816 202.698C623.833 202.97 624.909 202.552 625.474 201.664L663.667 141.808L662.525 141.414Z" fill="#F25375"/>
<path d="M441.869 109.143C422.907 120.944 409.894 140.738 402.719 161.888C395.544 183.039 393.724 205.62 393.237 227.949C392.75 250.278 393.538 272.678 391.343 294.905C391.193 296.435 391.35 298.463 392.843 298.842C393.832 299.092 394.785 298.388 395.575 297.741C417.924 279.405 446.832 271.539 472.414 258.073C473.922 257.28 475.488 256.405 476.398 254.964C476.974 254.051 477.239 252.984 477.496 251.934C478.491 247.882 479.485 243.829 480.479 239.777C484.837 222.021 489.215 204.114 489.9 185.845C490.582 167.575 486.461 153.274 476.555 137.905C474.682 135 467.781 122.687 465.31 120.267C459.027 114.117 451.252 118.07 441.869 109.143Z" fill="#90AEE4"/>
<path d="M480.679 138.987C479.202 142.293 476.148 144.82 472.002 144.568C456.727 143.644 440.306 143.622 424.98 141.306C423.383 159.033 426.685 177.701 436.71 192.629C447.933 209.342 465.483 219.909 483.186 228.579C486.507 214.491 489.362 200.282 489.902 185.844C490.5 169.764 488.031 153.204 480.679 138.987Z" fill="#6C97D3"/>
<path d="M598.929 188.672C601.801 190.298 605.546 188.794 607.84 186.422C610.134 184.051 611.698 181.513 613.726 178.909C616.173 175.764 621.329 173.425 626.214 170.077C626.796 169.679 627.571 170.192 627.385 170.874C626.586 173.798 622.175 178.545 621.455 181.267C621.373 181.579 621.302 181.947 621.51 182.195C621.71 182.43 622.068 182.432 622.376 182.401C627.842 181.852 631.954 177.217 637.085 175.252C637.836 174.965 638.666 174.734 639.432 174.971C641.089 175.483 639.844 178.844 639.439 180.532C638.6 184.022 635.818 187.895 633.119 190.26C623.362 198.815 611.647 200.721 598.796 198.923" fill="#FF948C"/>
<path d="M425.886 130.375C432.934 125.297 442.027 124.996 450.362 126.46C466.36 129.27 481.053 137.822 494.484 147.73C506.963 156.934 518.735 167.468 532.277 174.656C550.442 184.298 571.044 187.449 591.231 186.843C595.069 186.728 599.111 186.528 602.523 188.45C605.936 190.373 608.272 195.289 606.301 198.89C605.099 201.086 602.742 202.132 600.552 203.035C584.559 209.621 568.486 216.229 551.76 220.069C535.034 223.909 517.488 224.894 500.939 220.224C478.152 213.793 458.937 197.231 441.857 179.535C436.805 174.3 431.798 168.823 428.483 162.135C425.168 155.445 418.219 139.937 425.886 130.375Z" fill="#90AEE4"/>
<g opacity="0.46">
<path d="M450.431 145.235C453.332 145.235 453.337 140.726 450.431 140.726C447.532 140.726 447.526 145.235 450.431 145.235Z" fill="white"/>
</g>
<g opacity="0.46">
<path d="M486.791 193.595C489.692 193.595 489.696 189.086 486.791 189.086C483.89 189.088 483.885 193.595 486.791 193.595Z" fill="white"/>
</g>
<g opacity="0.46">
<path d="M491.732 157.943C494.633 157.943 494.637 153.434 491.732 153.434C488.831 153.434 488.826 157.943 491.732 157.943Z" fill="white"/>
</g>
<g opacity="0.46">
<path d="M459.61 178.065C462.511 178.065 462.515 173.556 459.61 173.556C456.709 173.556 456.704 178.065 459.61 178.065Z" fill="white"/>
</g>
<g opacity="0.46">
<path d="M529.15 190.771C532.051 190.771 532.055 186.262 529.15 186.262C526.249 186.262 526.244 190.771 529.15 190.771Z" fill="white"/>
</g>
<g opacity="0.46">
<path d="M521.444 216.894C524.345 216.894 524.349 212.385 521.444 212.385C518.543 212.385 518.538 216.894 521.444 216.894Z" fill="white"/>
</g>
<g opacity="0.46">
<path d="M573.274 200.655C576.175 200.655 576.179 196.146 573.274 196.146C570.373 196.148 570.369 200.655 573.274 200.655Z" fill="white"/>
</g>
<g opacity="0.46">
<path d="M467.376 246.544C470.277 246.544 470.282 242.035 467.376 242.035C464.475 242.035 464.471 246.544 467.376 246.544Z" fill="white"/>
</g>
<g opacity="0.46">
<path d="M439.135 211.598C442.036 211.598 442.04 207.09 439.135 207.09C436.236 207.09 436.231 211.598 439.135 211.598Z" fill="white"/>
</g>
<g opacity="0.46">
<path d="M431.371 257.135C434.272 257.135 434.276 252.626 431.371 252.626C428.47 252.626 428.465 257.135 431.371 257.135Z" fill="white"/>
</g>
<g opacity="0.46">
<path d="M404.19 282.197C407.091 282.197 407.095 277.689 404.19 277.689C401.289 277.689 401.284 282.197 404.19 282.197Z" fill="white"/>
</g>
<g opacity="0.46">
<path d="M405.248 226.069C408.149 226.069 408.153 221.561 405.248 221.561C402.347 221.563 402.343 226.069 405.248 226.069Z" fill="white"/>
</g>
<g opacity="0.46">
<path d="M420.781 182.297C423.682 182.297 423.686 177.789 420.781 177.789C417.88 177.791 417.875 182.297 420.781 182.297Z" fill="white"/>
</g>
<g opacity="0.46">
<path d="M420.781 148.412C423.682 148.412 423.686 143.903 420.781 143.903C417.88 143.903 417.875 148.412 420.781 148.412Z" fill="white"/>
</g>
<g opacity="0.46">
<path d="M475.846 220.068C478.747 220.068 478.752 215.559 475.846 215.559C472.945 215.561 472.941 220.068 475.846 220.068Z" fill="white"/>
</g>
<g opacity="0.46">
<path d="M399.953 190.77C402.854 190.77 402.859 186.262 399.953 186.262C397.052 186.262 397.048 190.77 399.953 190.77Z" fill="white"/>
</g>
</svg>
