<svg width="134" height="149" viewBox="0 0 134 149" fill="none" xmlns="http://www.w3.org/2000/svg">
<path fill-rule="evenodd" clip-rule="evenodd" d="M59.3401 0.34426C47.2425 1.7328 34.7664 6.88767 25.3766 14.3769C5.32951 30.3666 -3.77131 55.7272 1.44769 81.0581C2.56969 86.5033 6.77699 97.8833 7.66832 97.8833C7.84486 97.8833 7.90625 97.1506 7.80591 96.2455C7.70626 95.3448 7.46524 90.651 7.27077 85.8151C7.0763 80.9791 6.82977 76.3422 6.72288 75.5105L6.52842 73.9982L9.74579 74.2357C16.9488 74.7678 21.983 75.5629 26.3097 76.8518C39.3082 80.7243 48.3735 85.8061 56.0844 93.5429C60.9883 98.4636 64.6029 103.155 66.1366 106.59C66.4538 107.301 66.8073 107.883 66.9217 107.883C67.0359 107.883 67.6272 106.912 68.2358 105.726C70.6935 100.933 77.1977 93.4594 82.6215 89.1949C89.4304 83.841 98.6398 79.2672 107.441 76.8687C109.697 76.2539 117.257 74.7812 118.158 74.7812C118.616 74.7812 118.992 74.6071 118.992 74.3944C118.992 74.1371 119.137 74.1189 119.423 74.3395C119.699 74.5526 121.131 74.554 123.407 74.3433C125.361 74.1623 127.026 74.0806 127.107 74.1613C127.187 74.242 127.026 78.7979 126.747 84.2855C126.469 89.7731 126.253 95.1162 126.266 96.1593L126.292 98.0557L127.875 94.78C132.437 85.3406 134.675 73.1503 133.821 62.3858C132.794 49.4307 128.817 38.3541 121.405 27.8023C118.77 24.0501 111.02 16.143 107.168 13.2763C95.4735 4.57194 81.1074 -0.133984 66.6497 0.00290439C64.0515 0.0273857 60.7624 0.181166 59.3401 0.34426ZM34.5933 48.2659C39.8999 51.7784 43.2072 54.4662 47.4646 58.7256C56.1258 67.3906 61.9458 77.1549 64.6491 87.5567C66.4045 94.3097 66.1845 94.4363 63.1813 88.4011C58.6612 79.3179 53.3098 71.768 46.9001 65.4297C41.4774 60.068 35.044 55.3841 29.6705 52.886C28.4468 52.317 27.3489 51.7195 27.2313 51.5581C27.1134 51.3971 26.9124 50.0782 26.7841 48.6273C26.6562 47.1767 26.4569 45.3806 26.3414 44.6361L26.131 43.2824L28.8571 44.7778C30.3563 45.6002 32.9375 47.1701 34.5933 48.2659ZM107.613 61.3037C95.3193 65.4094 86.4095 70.5456 79.1482 77.7121C75.3402 81.4705 72.5155 85.091 70.3453 88.9949C68.8254 91.7292 68.8516 91.204 70.4353 87.1943C73.3372 79.8464 78.9196 72.6893 85.2006 68.2644C92.4164 63.1805 101.773 60.1 111.234 59.6931C112.246 59.6497 111.283 60.0779 107.613 61.3037Z" fill="#5E41D2"/>
<path fill-rule="evenodd" clip-rule="evenodd" d="M48.6587 2.54838C40.9005 4.44482 40.4554 5.30671 30.9372 10.3065C11.9728 22.892 -1.12984 43.0213 0.0769803 70.648C0.617383 83.019 6.77141 97.8457 7.66274 97.8457C7.83928 97.8457 7.24586 86.7246 7.14552 85.8195C7.04588 84.9189 6.82279 80.3112 6.62831 75.4753C6.43384 70.6394 6.50379 65.9628 6.3969 65.1311V63.6163L9.61427 63.8539C16.8173 64.3859 21.8515 65.1811 26.1781 66.4699C39.1767 70.3425 48.242 75.4242 55.9529 83.161C60.8567 88.0818 64.4714 92.7728 66.0051 96.2078C66.3223 96.9191 66.6757 97.5008 66.7902 97.5008C66.9043 97.5008 67.4956 96.5302 68.1042 95.344C70.562 90.5516 77.0661 83.0776 82.4899 78.813C89.2988 73.4592 98.5084 68.8853 107.309 66.4868C109.565 65.872 117.126 64.3994 118.026 64.3994C118.485 64.3994 118.86 64.2253 118.86 64.0125C118.86 63.7553 119.005 63.737 119.291 63.9577C119.567 64.1708 121 64.1721 123.276 63.9615C125.23 63.7804 126.895 63.6987 126.975 63.7794C127.056 63.8601 127.254 68.394 126.975 73.8816C126.794 79.7433 126.602 84.562 126.616 85.605L126.104 98.0181L128.862 92.5012L130.759 86.9842C133.517 77.1572 135.414 66.6406 132.138 52.2008C128.862 37.2017 121.277 27.7195 118.001 23.7542C114.725 19.7889 108.174 13.5824 100.933 9.27233C95.9334 6.51387 84.8996 0.47975 70.0728 0.134717C67.4747 0.159198 60.2458 -0.899733 48.6587 2.54838Z" fill="white" fill-opacity="0.26"/>
<path d="M100.387 147.923C98.3645 147.923 96.5255 147.463 94.8705 146.543C93.2614 145.624 91.9971 144.36 91.0776 142.751C90.1581 141.095 89.6984 139.256 89.6984 137.234C89.6984 135.257 90.1581 133.487 91.0776 131.924C91.9971 130.36 93.2614 129.142 94.8705 128.269C96.5255 127.349 98.3645 126.889 100.387 126.889C102.41 126.889 104.226 127.349 105.835 128.269C107.444 129.142 108.709 130.36 109.628 131.924C110.594 133.487 111.076 135.257 111.076 137.234C111.076 139.256 110.594 141.095 109.628 142.751C108.709 144.36 107.444 145.624 105.835 146.543C104.226 147.463 102.41 147.923 100.387 147.923ZM100.387 143.647C102.18 143.647 103.629 143.072 104.732 141.923C105.835 140.728 106.387 139.165 106.387 137.234C106.387 135.395 105.835 133.923 104.732 132.82C103.629 131.717 102.18 131.165 100.387 131.165C98.5484 131.165 97.0772 131.717 95.9739 132.82C94.9164 133.923 94.3877 135.395 94.3877 137.234C94.3877 139.165 94.9164 140.728 95.9739 141.923C97.0772 143.072 98.5484 143.647 100.387 143.647Z" fill="#5E41D2"/>
<path d="M83.12 147.922C82.5223 147.922 81.9706 147.738 81.4649 147.371C81.0052 147.003 80.7753 146.474 80.7753 145.784V129.234C80.7753 128.452 81.0052 127.877 81.4649 127.51C81.9706 127.096 82.5223 126.889 83.12 126.889C83.7177 126.889 84.2464 127.096 84.7061 127.51C85.2118 127.877 85.4647 128.452 85.4647 129.234V145.784C85.4647 146.474 85.2118 147.003 84.7061 147.371C84.2464 147.738 83.7177 147.922 83.12 147.922ZM83.1889 123.096C82.3154 123.096 81.5569 122.82 80.9132 122.269C80.3156 121.671 80.0167 120.958 80.0167 120.131C80.0167 119.349 80.3156 118.683 80.9132 118.131C81.5569 117.533 82.3154 117.234 83.1889 117.234C84.0165 117.234 84.7291 117.533 85.3268 118.131C85.9244 118.683 86.2233 119.349 86.2233 120.131C86.2233 120.958 85.9244 121.671 85.3268 122.269C84.7291 122.82 84.0165 123.096 83.1889 123.096Z" fill="#5E41D2"/>
<path d="M71.1074 148.267C70.2339 148.267 69.4753 147.968 68.8317 147.371C68.234 146.819 67.9352 146.152 67.9352 145.371C67.9352 144.543 68.234 143.854 68.8317 143.302C69.4753 142.704 70.2339 142.406 71.1074 142.406C71.9349 142.406 72.6475 142.704 73.2452 143.302C73.8429 143.854 74.1417 144.543 74.1417 145.371C74.1417 146.152 73.8429 146.819 73.2452 147.371C72.6475 147.968 71.9349 148.267 71.1074 148.267Z" fill="#8872DE"/>
<path d="M53.3867 147.923C49.9387 147.923 47.2492 146.934 45.3183 144.957C43.3873 142.98 42.4219 140.314 42.4219 136.958C42.4219 134.015 43.3873 131.602 45.3183 129.717C47.2951 127.832 49.8237 126.889 52.904 126.889C55.8923 126.889 58.283 127.763 60.076 129.51C61.869 131.211 62.7655 133.326 62.7655 135.854C62.7655 136.866 62.4897 137.624 61.938 138.13C61.4322 138.636 60.7656 138.889 59.9381 138.889H47.9388C47.479 138.889 47.3181 139.142 47.4561 139.647C47.8239 140.935 48.5594 141.946 49.6628 142.682C50.8122 143.371 52.0995 143.716 53.5247 143.716C54.5821 143.716 55.5935 143.578 56.559 143.302C57.5704 143.026 58.4439 142.613 59.1795 142.061C59.4094 141.877 59.7082 141.785 60.076 141.785C60.5817 141.785 61.0415 142.015 61.4552 142.475C61.869 142.888 62.0759 143.394 62.0759 143.992C62.0759 144.268 62.0299 144.544 61.938 144.819C61.846 145.095 61.6391 145.371 61.3173 145.647C60.122 146.52 58.8347 147.118 57.4555 147.44C56.1222 147.762 54.766 147.923 53.3867 147.923ZM57.3865 135.303C57.6623 135.303 57.8003 135.165 57.8003 134.889C57.8003 133.832 57.3175 132.912 56.3521 132.13C55.4326 131.349 54.2832 130.958 52.904 130.958C51.7087 130.958 50.5593 131.28 49.4559 131.924C48.3985 132.567 47.7549 133.418 47.525 134.475C47.525 134.475 47.525 134.498 47.525 134.544C47.479 134.728 47.4561 134.889 47.4561 135.027C47.502 135.165 47.7089 135.234 48.0767 135.234L57.3865 135.303Z" fill="#8872DE"/>
<path d="M28.274 147.233C27.1246 147.233 26.2051 146.888 25.5155 146.198C24.8259 145.509 24.4811 144.589 24.4811 143.44V121.579C24.4811 120.797 24.7339 120.223 25.2397 119.855C25.7913 119.487 26.366 119.303 26.9637 119.303C27.5614 119.303 28.0901 119.487 28.5498 119.855C29.0555 120.223 29.3084 120.797 29.3084 121.579V141.164C29.3084 141.854 29.4463 142.336 29.7221 142.612C29.998 142.842 30.4577 142.957 31.1014 142.957H38.2044C38.94 142.957 39.4687 143.187 39.7905 143.647C40.1583 144.106 40.3422 144.589 40.3422 145.095C40.3422 145.646 40.1583 146.152 39.7905 146.612C39.4687 147.026 38.94 147.233 38.2044 147.233H28.274Z" fill="#8872DE"/>
</svg>
